<mxfile host="Electron" agent="Mozilla/5.0 (Windows NT 10.0; Win64; x64) AppleWebKit/537.36 (KHTML, like Gecko) draw.io/26.0.9 Chrome/128.0.6613.186 Electron/32.2.5 Safari/537.36" version="26.0.9">
  <diagram name="Page-1" id="bqfsbuydzAlktRlNHZDO">
    <mxGraphModel dx="3434" dy="2704" grid="1" gridSize="10" guides="1" tooltips="1" connect="1" arrows="1" fold="1" page="1" pageScale="1" pageWidth="827" pageHeight="1169" math="0" shadow="0">
      <root>
        <mxCell id="0" />
        <mxCell id="1" parent="0" />
        <mxCell id="w2JHaz7uP7hH5NqDD6UE-1" value="User (Default Django models.User - relevant fields only)" style="shape=table;startSize=30;container=1;collapsible=0;childLayout=tableLayout;strokeColor=#82b366;fontSize=16;fillColor=#d5e8d4;" parent="1" vertex="1">
          <mxGeometry x="1180" y="340" width="850" height="275" as="geometry" />
        </mxCell>
        <mxCell id="w2JHaz7uP7hH5NqDD6UE-2" value="" style="shape=tableRow;horizontal=0;startSize=0;swimlaneHead=0;swimlaneBody=0;strokeColor=inherit;top=0;left=0;bottom=0;right=0;collapsible=0;dropTarget=0;fillColor=none;points=[[0,0.5],[1,0.5]];portConstraint=eastwest;fontSize=16;" parent="w2JHaz7uP7hH5NqDD6UE-1" vertex="1">
          <mxGeometry y="30" width="850" height="30" as="geometry" />
        </mxCell>
        <mxCell id="w2JHaz7uP7hH5NqDD6UE-3" value="Key" style="shape=partialRectangle;html=1;whiteSpace=wrap;connectable=0;strokeColor=inherit;overflow=hidden;fillColor=none;top=0;left=0;bottom=0;right=0;pointerEvents=1;fontSize=16;" parent="w2JHaz7uP7hH5NqDD6UE-2" vertex="1">
          <mxGeometry width="50" height="30" as="geometry">
            <mxRectangle width="50" height="30" as="alternateBounds" />
          </mxGeometry>
        </mxCell>
        <mxCell id="w2JHaz7uP7hH5NqDD6UE-4" value="Name" style="shape=partialRectangle;html=1;whiteSpace=wrap;connectable=0;strokeColor=inherit;overflow=hidden;fillColor=none;top=0;left=0;bottom=0;right=0;pointerEvents=1;fontSize=16;" parent="w2JHaz7uP7hH5NqDD6UE-2" vertex="1">
          <mxGeometry x="50" width="90" height="30" as="geometry">
            <mxRectangle width="90" height="30" as="alternateBounds" />
          </mxGeometry>
        </mxCell>
        <mxCell id="w2JHaz7uP7hH5NqDD6UE-5" value="Type" style="shape=partialRectangle;html=1;whiteSpace=wrap;connectable=0;strokeColor=inherit;overflow=hidden;fillColor=none;top=0;left=0;bottom=0;right=0;pointerEvents=1;fontSize=16;" parent="w2JHaz7uP7hH5NqDD6UE-2" vertex="1">
          <mxGeometry x="140" width="120" height="30" as="geometry">
            <mxRectangle width="120" height="30" as="alternateBounds" />
          </mxGeometry>
        </mxCell>
        <mxCell id="w2JHaz7uP7hH5NqDD6UE-14" value="Additional Info" style="shape=partialRectangle;html=1;whiteSpace=wrap;connectable=0;strokeColor=inherit;overflow=hidden;fillColor=none;top=0;left=0;bottom=0;right=0;pointerEvents=1;fontSize=16;" parent="w2JHaz7uP7hH5NqDD6UE-2" vertex="1">
          <mxGeometry x="260" width="590" height="30" as="geometry">
            <mxRectangle width="590" height="30" as="alternateBounds" />
          </mxGeometry>
        </mxCell>
        <mxCell id="w2JHaz7uP7hH5NqDD6UE-6" value="" style="shape=tableRow;horizontal=0;startSize=0;swimlaneHead=0;swimlaneBody=0;strokeColor=inherit;top=0;left=0;bottom=0;right=0;collapsible=0;dropTarget=0;fillColor=none;points=[[0,0.5],[1,0.5]];portConstraint=eastwest;fontSize=16;" parent="w2JHaz7uP7hH5NqDD6UE-1" vertex="1">
          <mxGeometry y="60" width="850" height="30" as="geometry" />
        </mxCell>
        <mxCell id="w2JHaz7uP7hH5NqDD6UE-7" value="PK" style="shape=partialRectangle;html=1;whiteSpace=wrap;connectable=0;strokeColor=inherit;overflow=hidden;fillColor=none;top=0;left=0;bottom=0;right=0;pointerEvents=1;fontSize=16;" parent="w2JHaz7uP7hH5NqDD6UE-6" vertex="1">
          <mxGeometry width="50" height="30" as="geometry">
            <mxRectangle width="50" height="30" as="alternateBounds" />
          </mxGeometry>
        </mxCell>
        <mxCell id="w2JHaz7uP7hH5NqDD6UE-8" value="user_id" style="shape=partialRectangle;html=1;whiteSpace=wrap;connectable=0;strokeColor=inherit;overflow=hidden;fillColor=none;top=0;left=0;bottom=0;right=0;pointerEvents=1;fontSize=16;" parent="w2JHaz7uP7hH5NqDD6UE-6" vertex="1">
          <mxGeometry x="50" width="90" height="30" as="geometry">
            <mxRectangle width="90" height="30" as="alternateBounds" />
          </mxGeometry>
        </mxCell>
        <mxCell id="w2JHaz7uP7hH5NqDD6UE-9" value="PositiveInteger" style="shape=partialRectangle;html=1;whiteSpace=wrap;connectable=0;strokeColor=inherit;overflow=hidden;fillColor=none;top=0;left=0;bottom=0;right=0;pointerEvents=1;fontSize=16;" parent="w2JHaz7uP7hH5NqDD6UE-6" vertex="1">
          <mxGeometry x="140" width="120" height="30" as="geometry">
            <mxRectangle width="120" height="30" as="alternateBounds" />
          </mxGeometry>
        </mxCell>
        <mxCell id="w2JHaz7uP7hH5NqDD6UE-15" style="shape=partialRectangle;html=1;whiteSpace=wrap;connectable=0;strokeColor=inherit;overflow=hidden;fillColor=none;top=0;left=0;bottom=0;right=0;pointerEvents=1;fontSize=16;" parent="w2JHaz7uP7hH5NqDD6UE-6" vertex="1">
          <mxGeometry x="260" width="590" height="30" as="geometry">
            <mxRectangle width="590" height="30" as="alternateBounds" />
          </mxGeometry>
        </mxCell>
        <mxCell id="w2JHaz7uP7hH5NqDD6UE-10" value="" style="shape=tableRow;horizontal=0;startSize=0;swimlaneHead=0;swimlaneBody=0;strokeColor=inherit;top=0;left=0;bottom=0;right=0;collapsible=0;dropTarget=0;fillColor=none;points=[[0,0.5],[1,0.5]];portConstraint=eastwest;fontSize=16;" parent="w2JHaz7uP7hH5NqDD6UE-1" vertex="1">
          <mxGeometry y="90" width="850" height="27" as="geometry" />
        </mxCell>
        <mxCell id="w2JHaz7uP7hH5NqDD6UE-11" value="" style="shape=partialRectangle;html=1;whiteSpace=wrap;connectable=0;strokeColor=inherit;overflow=hidden;fillColor=none;top=0;left=0;bottom=0;right=0;pointerEvents=1;fontSize=16;" parent="w2JHaz7uP7hH5NqDD6UE-10" vertex="1">
          <mxGeometry width="50" height="27" as="geometry">
            <mxRectangle width="50" height="27" as="alternateBounds" />
          </mxGeometry>
        </mxCell>
        <mxCell id="w2JHaz7uP7hH5NqDD6UE-12" value="username" style="shape=partialRectangle;html=1;whiteSpace=wrap;connectable=0;strokeColor=inherit;overflow=hidden;fillColor=none;top=0;left=0;bottom=0;right=0;pointerEvents=1;fontSize=16;" parent="w2JHaz7uP7hH5NqDD6UE-10" vertex="1">
          <mxGeometry x="50" width="90" height="27" as="geometry">
            <mxRectangle width="90" height="27" as="alternateBounds" />
          </mxGeometry>
        </mxCell>
        <mxCell id="w2JHaz7uP7hH5NqDD6UE-13" value="CharField" style="shape=partialRectangle;html=1;whiteSpace=wrap;connectable=0;strokeColor=inherit;overflow=hidden;fillColor=none;top=0;left=0;bottom=0;right=0;pointerEvents=1;fontSize=16;" parent="w2JHaz7uP7hH5NqDD6UE-10" vertex="1">
          <mxGeometry x="140" width="120" height="27" as="geometry">
            <mxRectangle width="120" height="27" as="alternateBounds" />
          </mxGeometry>
        </mxCell>
        <mxCell id="w2JHaz7uP7hH5NqDD6UE-16" value="max_length = 25 |" style="shape=partialRectangle;html=1;whiteSpace=wrap;connectable=0;strokeColor=inherit;overflow=hidden;fillColor=none;top=0;left=0;bottom=0;right=0;pointerEvents=1;fontSize=16;" parent="w2JHaz7uP7hH5NqDD6UE-10" vertex="1">
          <mxGeometry x="260" width="590" height="27" as="geometry">
            <mxRectangle width="590" height="27" as="alternateBounds" />
          </mxGeometry>
        </mxCell>
        <mxCell id="Cl67ufv3YWj9aHkImX3T-1" style="shape=tableRow;horizontal=0;startSize=0;swimlaneHead=0;swimlaneBody=0;strokeColor=inherit;top=0;left=0;bottom=0;right=0;collapsible=0;dropTarget=0;fillColor=none;points=[[0,0.5],[1,0.5]];portConstraint=eastwest;fontSize=16;" parent="w2JHaz7uP7hH5NqDD6UE-1" vertex="1">
          <mxGeometry y="117" width="850" height="27" as="geometry" />
        </mxCell>
        <mxCell id="Cl67ufv3YWj9aHkImX3T-2" style="shape=partialRectangle;html=1;whiteSpace=wrap;connectable=0;strokeColor=inherit;overflow=hidden;fillColor=none;top=0;left=0;bottom=0;right=0;pointerEvents=1;fontSize=16;" parent="Cl67ufv3YWj9aHkImX3T-1" vertex="1">
          <mxGeometry width="50" height="27" as="geometry">
            <mxRectangle width="50" height="27" as="alternateBounds" />
          </mxGeometry>
        </mxCell>
        <mxCell id="Cl67ufv3YWj9aHkImX3T-3" value="first_name" style="shape=partialRectangle;html=1;whiteSpace=wrap;connectable=0;strokeColor=inherit;overflow=hidden;fillColor=none;top=0;left=0;bottom=0;right=0;pointerEvents=1;fontSize=16;" parent="Cl67ufv3YWj9aHkImX3T-1" vertex="1">
          <mxGeometry x="50" width="90" height="27" as="geometry">
            <mxRectangle width="90" height="27" as="alternateBounds" />
          </mxGeometry>
        </mxCell>
        <mxCell id="Cl67ufv3YWj9aHkImX3T-4" value="CharField" style="shape=partialRectangle;html=1;whiteSpace=wrap;connectable=0;strokeColor=inherit;overflow=hidden;fillColor=none;top=0;left=0;bottom=0;right=0;pointerEvents=1;fontSize=16;" parent="Cl67ufv3YWj9aHkImX3T-1" vertex="1">
          <mxGeometry x="140" width="120" height="27" as="geometry">
            <mxRectangle width="120" height="27" as="alternateBounds" />
          </mxGeometry>
        </mxCell>
        <mxCell id="Cl67ufv3YWj9aHkImX3T-5" value="max_length = 25 |" style="shape=partialRectangle;html=1;whiteSpace=wrap;connectable=0;strokeColor=inherit;overflow=hidden;fillColor=none;top=0;left=0;bottom=0;right=0;pointerEvents=1;fontSize=16;" parent="Cl67ufv3YWj9aHkImX3T-1" vertex="1">
          <mxGeometry x="260" width="590" height="27" as="geometry">
            <mxRectangle width="590" height="27" as="alternateBounds" />
          </mxGeometry>
        </mxCell>
        <mxCell id="Cl67ufv3YWj9aHkImX3T-6" style="shape=tableRow;horizontal=0;startSize=0;swimlaneHead=0;swimlaneBody=0;strokeColor=inherit;top=0;left=0;bottom=0;right=0;collapsible=0;dropTarget=0;fillColor=none;points=[[0,0.5],[1,0.5]];portConstraint=eastwest;fontSize=16;" parent="w2JHaz7uP7hH5NqDD6UE-1" vertex="1">
          <mxGeometry y="144" width="850" height="27" as="geometry" />
        </mxCell>
        <mxCell id="Cl67ufv3YWj9aHkImX3T-7" style="shape=partialRectangle;html=1;whiteSpace=wrap;connectable=0;strokeColor=inherit;overflow=hidden;fillColor=none;top=0;left=0;bottom=0;right=0;pointerEvents=1;fontSize=16;" parent="Cl67ufv3YWj9aHkImX3T-6" vertex="1">
          <mxGeometry width="50" height="27" as="geometry">
            <mxRectangle width="50" height="27" as="alternateBounds" />
          </mxGeometry>
        </mxCell>
        <mxCell id="Cl67ufv3YWj9aHkImX3T-8" value="last_name" style="shape=partialRectangle;html=1;whiteSpace=wrap;connectable=0;strokeColor=inherit;overflow=hidden;fillColor=none;top=0;left=0;bottom=0;right=0;pointerEvents=1;fontSize=16;" parent="Cl67ufv3YWj9aHkImX3T-6" vertex="1">
          <mxGeometry x="50" width="90" height="27" as="geometry">
            <mxRectangle width="90" height="27" as="alternateBounds" />
          </mxGeometry>
        </mxCell>
        <mxCell id="Cl67ufv3YWj9aHkImX3T-9" value="CharField" style="shape=partialRectangle;html=1;whiteSpace=wrap;connectable=0;strokeColor=inherit;overflow=hidden;fillColor=none;top=0;left=0;bottom=0;right=0;pointerEvents=1;fontSize=16;" parent="Cl67ufv3YWj9aHkImX3T-6" vertex="1">
          <mxGeometry x="140" width="120" height="27" as="geometry">
            <mxRectangle width="120" height="27" as="alternateBounds" />
          </mxGeometry>
        </mxCell>
        <mxCell id="Cl67ufv3YWj9aHkImX3T-10" value="max_length = 25 |" style="shape=partialRectangle;html=1;whiteSpace=wrap;connectable=0;strokeColor=inherit;overflow=hidden;fillColor=none;top=0;left=0;bottom=0;right=0;pointerEvents=1;fontSize=16;" parent="Cl67ufv3YWj9aHkImX3T-6" vertex="1">
          <mxGeometry x="260" width="590" height="27" as="geometry">
            <mxRectangle width="590" height="27" as="alternateBounds" />
          </mxGeometry>
        </mxCell>
        <mxCell id="w2JHaz7uP7hH5NqDD6UE-70" style="shape=tableRow;horizontal=0;startSize=0;swimlaneHead=0;swimlaneBody=0;strokeColor=inherit;top=0;left=0;bottom=0;right=0;collapsible=0;dropTarget=0;fillColor=none;points=[[0,0.5],[1,0.5]];portConstraint=eastwest;fontSize=16;" parent="w2JHaz7uP7hH5NqDD6UE-1" vertex="1">
          <mxGeometry y="171" width="850" height="23" as="geometry" />
        </mxCell>
        <mxCell id="w2JHaz7uP7hH5NqDD6UE-71" style="shape=partialRectangle;html=1;whiteSpace=wrap;connectable=0;strokeColor=inherit;overflow=hidden;fillColor=none;top=0;left=0;bottom=0;right=0;pointerEvents=1;fontSize=16;" parent="w2JHaz7uP7hH5NqDD6UE-70" vertex="1">
          <mxGeometry width="50" height="23" as="geometry">
            <mxRectangle width="50" height="23" as="alternateBounds" />
          </mxGeometry>
        </mxCell>
        <mxCell id="w2JHaz7uP7hH5NqDD6UE-72" value="email" style="shape=partialRectangle;html=1;whiteSpace=wrap;connectable=0;strokeColor=inherit;overflow=hidden;fillColor=none;top=0;left=0;bottom=0;right=0;pointerEvents=1;fontSize=16;" parent="w2JHaz7uP7hH5NqDD6UE-70" vertex="1">
          <mxGeometry x="50" width="90" height="23" as="geometry">
            <mxRectangle width="90" height="23" as="alternateBounds" />
          </mxGeometry>
        </mxCell>
        <mxCell id="w2JHaz7uP7hH5NqDD6UE-73" value="EmailField" style="shape=partialRectangle;html=1;whiteSpace=wrap;connectable=0;strokeColor=inherit;overflow=hidden;fillColor=none;top=0;left=0;bottom=0;right=0;pointerEvents=1;fontSize=16;" parent="w2JHaz7uP7hH5NqDD6UE-70" vertex="1">
          <mxGeometry x="140" width="120" height="23" as="geometry">
            <mxRectangle width="120" height="23" as="alternateBounds" />
          </mxGeometry>
        </mxCell>
        <mxCell id="w2JHaz7uP7hH5NqDD6UE-74" style="shape=partialRectangle;html=1;whiteSpace=wrap;connectable=0;strokeColor=inherit;overflow=hidden;fillColor=none;top=0;left=0;bottom=0;right=0;pointerEvents=1;fontSize=16;" parent="w2JHaz7uP7hH5NqDD6UE-70" vertex="1">
          <mxGeometry x="260" width="590" height="23" as="geometry">
            <mxRectangle width="590" height="23" as="alternateBounds" />
          </mxGeometry>
        </mxCell>
        <mxCell id="w2JHaz7uP7hH5NqDD6UE-75" style="shape=tableRow;horizontal=0;startSize=0;swimlaneHead=0;swimlaneBody=0;strokeColor=inherit;top=0;left=0;bottom=0;right=0;collapsible=0;dropTarget=0;fillColor=none;points=[[0,0.5],[1,0.5]];portConstraint=eastwest;fontSize=16;" parent="w2JHaz7uP7hH5NqDD6UE-1" vertex="1">
          <mxGeometry y="194" width="850" height="27" as="geometry" />
        </mxCell>
        <mxCell id="w2JHaz7uP7hH5NqDD6UE-76" style="shape=partialRectangle;html=1;whiteSpace=wrap;connectable=0;strokeColor=inherit;overflow=hidden;fillColor=none;top=0;left=0;bottom=0;right=0;pointerEvents=1;fontSize=16;" parent="w2JHaz7uP7hH5NqDD6UE-75" vertex="1">
          <mxGeometry width="50" height="27" as="geometry">
            <mxRectangle width="50" height="27" as="alternateBounds" />
          </mxGeometry>
        </mxCell>
        <mxCell id="w2JHaz7uP7hH5NqDD6UE-77" value="password" style="shape=partialRectangle;html=1;whiteSpace=wrap;connectable=0;strokeColor=inherit;overflow=hidden;fillColor=none;top=0;left=0;bottom=0;right=0;pointerEvents=1;fontSize=16;" parent="w2JHaz7uP7hH5NqDD6UE-75" vertex="1">
          <mxGeometry x="50" width="90" height="27" as="geometry">
            <mxRectangle width="90" height="27" as="alternateBounds" />
          </mxGeometry>
        </mxCell>
        <mxCell id="w2JHaz7uP7hH5NqDD6UE-78" value="CharField" style="shape=partialRectangle;html=1;whiteSpace=wrap;connectable=0;strokeColor=inherit;overflow=hidden;fillColor=none;top=0;left=0;bottom=0;right=0;pointerEvents=1;fontSize=16;" parent="w2JHaz7uP7hH5NqDD6UE-75" vertex="1">
          <mxGeometry x="140" width="120" height="27" as="geometry">
            <mxRectangle width="120" height="27" as="alternateBounds" />
          </mxGeometry>
        </mxCell>
        <mxCell id="w2JHaz7uP7hH5NqDD6UE-79" value="encrypted by user model by default" style="shape=partialRectangle;html=1;whiteSpace=wrap;connectable=0;strokeColor=inherit;overflow=hidden;fillColor=none;top=0;left=0;bottom=0;right=0;pointerEvents=1;fontSize=16;" parent="w2JHaz7uP7hH5NqDD6UE-75" vertex="1">
          <mxGeometry x="260" width="590" height="27" as="geometry">
            <mxRectangle width="590" height="27" as="alternateBounds" />
          </mxGeometry>
        </mxCell>
        <mxCell id="w2JHaz7uP7hH5NqDD6UE-80" style="shape=tableRow;horizontal=0;startSize=0;swimlaneHead=0;swimlaneBody=0;strokeColor=inherit;top=0;left=0;bottom=0;right=0;collapsible=0;dropTarget=0;fillColor=none;points=[[0,0.5],[1,0.5]];portConstraint=eastwest;fontSize=16;" parent="w2JHaz7uP7hH5NqDD6UE-1" vertex="1">
          <mxGeometry y="221" width="850" height="27" as="geometry" />
        </mxCell>
        <mxCell id="w2JHaz7uP7hH5NqDD6UE-81" style="shape=partialRectangle;html=1;whiteSpace=wrap;connectable=0;strokeColor=inherit;overflow=hidden;fillColor=none;top=0;left=0;bottom=0;right=0;pointerEvents=1;fontSize=16;" parent="w2JHaz7uP7hH5NqDD6UE-80" vertex="1">
          <mxGeometry width="50" height="27" as="geometry">
            <mxRectangle width="50" height="27" as="alternateBounds" />
          </mxGeometry>
        </mxCell>
        <mxCell id="w2JHaz7uP7hH5NqDD6UE-82" value="is_staff" style="shape=partialRectangle;html=1;whiteSpace=wrap;connectable=0;strokeColor=inherit;overflow=hidden;fillColor=none;top=0;left=0;bottom=0;right=0;pointerEvents=1;fontSize=16;" parent="w2JHaz7uP7hH5NqDD6UE-80" vertex="1">
          <mxGeometry x="50" width="90" height="27" as="geometry">
            <mxRectangle width="90" height="27" as="alternateBounds" />
          </mxGeometry>
        </mxCell>
        <mxCell id="w2JHaz7uP7hH5NqDD6UE-83" value="BooleanField" style="shape=partialRectangle;html=1;whiteSpace=wrap;connectable=0;strokeColor=inherit;overflow=hidden;fillColor=none;top=0;left=0;bottom=0;right=0;pointerEvents=1;fontSize=16;" parent="w2JHaz7uP7hH5NqDD6UE-80" vertex="1">
          <mxGeometry x="140" width="120" height="27" as="geometry">
            <mxRectangle width="120" height="27" as="alternateBounds" />
          </mxGeometry>
        </mxCell>
        <mxCell id="w2JHaz7uP7hH5NqDD6UE-84" value="default = false | required true for admin panel access" style="shape=partialRectangle;html=1;whiteSpace=wrap;connectable=0;strokeColor=inherit;overflow=hidden;fillColor=none;top=0;left=0;bottom=0;right=0;pointerEvents=1;fontSize=16;" parent="w2JHaz7uP7hH5NqDD6UE-80" vertex="1">
          <mxGeometry x="260" width="590" height="27" as="geometry">
            <mxRectangle width="590" height="27" as="alternateBounds" />
          </mxGeometry>
        </mxCell>
        <mxCell id="yGobTbZYCNl5wQGwiJMD-1" style="shape=tableRow;horizontal=0;startSize=0;swimlaneHead=0;swimlaneBody=0;strokeColor=inherit;top=0;left=0;bottom=0;right=0;collapsible=0;dropTarget=0;fillColor=none;points=[[0,0.5],[1,0.5]];portConstraint=eastwest;fontSize=16;" parent="w2JHaz7uP7hH5NqDD6UE-1" vertex="1">
          <mxGeometry y="248" width="850" height="27" as="geometry" />
        </mxCell>
        <mxCell id="yGobTbZYCNl5wQGwiJMD-2" style="shape=partialRectangle;html=1;whiteSpace=wrap;connectable=0;strokeColor=inherit;overflow=hidden;fillColor=none;top=0;left=0;bottom=0;right=0;pointerEvents=1;fontSize=16;" parent="yGobTbZYCNl5wQGwiJMD-1" vertex="1">
          <mxGeometry width="50" height="27" as="geometry">
            <mxRectangle width="50" height="27" as="alternateBounds" />
          </mxGeometry>
        </mxCell>
        <mxCell id="yGobTbZYCNl5wQGwiJMD-3" value="is_active" style="shape=partialRectangle;html=1;whiteSpace=wrap;connectable=0;strokeColor=inherit;overflow=hidden;fillColor=none;top=0;left=0;bottom=0;right=0;pointerEvents=1;fontSize=16;" parent="yGobTbZYCNl5wQGwiJMD-1" vertex="1">
          <mxGeometry x="50" width="90" height="27" as="geometry">
            <mxRectangle width="90" height="27" as="alternateBounds" />
          </mxGeometry>
        </mxCell>
        <mxCell id="yGobTbZYCNl5wQGwiJMD-4" value="BooleanField" style="shape=partialRectangle;html=1;whiteSpace=wrap;connectable=0;strokeColor=inherit;overflow=hidden;fillColor=none;top=0;left=0;bottom=0;right=0;pointerEvents=1;fontSize=16;" parent="yGobTbZYCNl5wQGwiJMD-1" vertex="1">
          <mxGeometry x="140" width="120" height="27" as="geometry">
            <mxRectangle width="120" height="27" as="alternateBounds" />
          </mxGeometry>
        </mxCell>
        <mxCell id="yGobTbZYCNl5wQGwiJMD-5" value="default to false before email verification - also can be triggered if user is &quot;banned&quot;" style="shape=partialRectangle;html=1;whiteSpace=wrap;connectable=0;strokeColor=inherit;overflow=hidden;fillColor=none;top=0;left=0;bottom=0;right=0;pointerEvents=1;fontSize=16;" parent="yGobTbZYCNl5wQGwiJMD-1" vertex="1">
          <mxGeometry x="260" width="590" height="27" as="geometry">
            <mxRectangle width="590" height="27" as="alternateBounds" />
          </mxGeometry>
        </mxCell>
        <mxCell id="w2JHaz7uP7hH5NqDD6UE-17" value="Event (models.Event)" style="shape=table;startSize=30;container=1;collapsible=0;childLayout=tableLayout;strokeColor=#9673a6;fontSize=16;fillColor=#e1d5e7;" parent="1" vertex="1">
          <mxGeometry x="-110" y="-194.5" width="1003" height="639" as="geometry" />
        </mxCell>
        <mxCell id="w2JHaz7uP7hH5NqDD6UE-18" value="" style="shape=tableRow;horizontal=0;startSize=0;swimlaneHead=0;swimlaneBody=0;strokeColor=inherit;top=0;left=0;bottom=0;right=0;collapsible=0;dropTarget=0;fillColor=none;points=[[0,0.5],[1,0.5]];portConstraint=eastwest;fontSize=16;" parent="w2JHaz7uP7hH5NqDD6UE-17" vertex="1">
          <mxGeometry y="30" width="1003" height="40" as="geometry" />
        </mxCell>
        <mxCell id="w2JHaz7uP7hH5NqDD6UE-19" value="Key" style="shape=partialRectangle;html=1;whiteSpace=wrap;connectable=0;strokeColor=inherit;overflow=hidden;fillColor=none;top=0;left=0;bottom=0;right=0;pointerEvents=1;fontSize=16;" parent="w2JHaz7uP7hH5NqDD6UE-18" vertex="1">
          <mxGeometry width="63" height="40" as="geometry">
            <mxRectangle width="63" height="40" as="alternateBounds" />
          </mxGeometry>
        </mxCell>
        <mxCell id="w2JHaz7uP7hH5NqDD6UE-20" value="Name" style="shape=partialRectangle;html=1;whiteSpace=wrap;connectable=0;strokeColor=inherit;overflow=hidden;fillColor=none;top=0;left=0;bottom=0;right=0;pointerEvents=1;fontSize=16;" parent="w2JHaz7uP7hH5NqDD6UE-18" vertex="1">
          <mxGeometry x="63" width="170" height="40" as="geometry">
            <mxRectangle width="170" height="40" as="alternateBounds" />
          </mxGeometry>
        </mxCell>
        <mxCell id="w2JHaz7uP7hH5NqDD6UE-21" value="Type" style="shape=partialRectangle;html=1;whiteSpace=wrap;connectable=0;strokeColor=inherit;overflow=hidden;fillColor=none;top=0;left=0;bottom=0;right=0;pointerEvents=1;fontSize=16;" parent="w2JHaz7uP7hH5NqDD6UE-18" vertex="1">
          <mxGeometry x="233" width="197" height="40" as="geometry">
            <mxRectangle width="197" height="40" as="alternateBounds" />
          </mxGeometry>
        </mxCell>
        <mxCell id="w2JHaz7uP7hH5NqDD6UE-22" value="Additional Info" style="shape=partialRectangle;html=1;whiteSpace=wrap;connectable=0;strokeColor=inherit;overflow=hidden;fillColor=none;top=0;left=0;bottom=0;right=0;pointerEvents=1;fontSize=16;" parent="w2JHaz7uP7hH5NqDD6UE-18" vertex="1">
          <mxGeometry x="430" width="573" height="40" as="geometry">
            <mxRectangle width="573" height="40" as="alternateBounds" />
          </mxGeometry>
        </mxCell>
        <mxCell id="w2JHaz7uP7hH5NqDD6UE-23" value="" style="shape=tableRow;horizontal=0;startSize=0;swimlaneHead=0;swimlaneBody=0;strokeColor=inherit;top=0;left=0;bottom=0;right=0;collapsible=0;dropTarget=0;fillColor=none;points=[[0,0.5],[1,0.5]];portConstraint=eastwest;fontSize=16;" parent="w2JHaz7uP7hH5NqDD6UE-17" vertex="1">
          <mxGeometry y="70" width="1003" height="38" as="geometry" />
        </mxCell>
        <mxCell id="w2JHaz7uP7hH5NqDD6UE-24" value="PK" style="shape=partialRectangle;html=1;whiteSpace=wrap;connectable=0;strokeColor=inherit;overflow=hidden;fillColor=none;top=0;left=0;bottom=0;right=0;pointerEvents=1;fontSize=16;" parent="w2JHaz7uP7hH5NqDD6UE-23" vertex="1">
          <mxGeometry width="63" height="38" as="geometry">
            <mxRectangle width="63" height="38" as="alternateBounds" />
          </mxGeometry>
        </mxCell>
        <mxCell id="w2JHaz7uP7hH5NqDD6UE-25" value="event_id" style="shape=partialRectangle;html=1;whiteSpace=wrap;connectable=0;strokeColor=inherit;overflow=hidden;fillColor=none;top=0;left=0;bottom=0;right=0;pointerEvents=1;fontSize=16;" parent="w2JHaz7uP7hH5NqDD6UE-23" vertex="1">
          <mxGeometry x="63" width="170" height="38" as="geometry">
            <mxRectangle width="170" height="38" as="alternateBounds" />
          </mxGeometry>
        </mxCell>
        <mxCell id="w2JHaz7uP7hH5NqDD6UE-26" value="PositiveIntegerField" style="shape=partialRectangle;html=1;whiteSpace=wrap;connectable=0;strokeColor=inherit;overflow=hidden;fillColor=none;top=0;left=0;bottom=0;right=0;pointerEvents=1;fontSize=16;" parent="w2JHaz7uP7hH5NqDD6UE-23" vertex="1">
          <mxGeometry x="233" width="197" height="38" as="geometry">
            <mxRectangle width="197" height="38" as="alternateBounds" />
          </mxGeometry>
        </mxCell>
        <mxCell id="w2JHaz7uP7hH5NqDD6UE-27" value="used to generate url for event" style="shape=partialRectangle;html=1;whiteSpace=wrap;connectable=0;strokeColor=inherit;overflow=hidden;fillColor=none;top=0;left=0;bottom=0;right=0;pointerEvents=1;fontSize=16;" parent="w2JHaz7uP7hH5NqDD6UE-23" vertex="1">
          <mxGeometry x="430" width="573" height="38" as="geometry">
            <mxRectangle width="573" height="38" as="alternateBounds" />
          </mxGeometry>
        </mxCell>
        <mxCell id="w2JHaz7uP7hH5NqDD6UE-28" value="" style="shape=tableRow;horizontal=0;startSize=0;swimlaneHead=0;swimlaneBody=0;strokeColor=inherit;top=0;left=0;bottom=0;right=0;collapsible=0;dropTarget=0;fillColor=none;points=[[0,0.5],[1,0.5]];portConstraint=eastwest;fontSize=16;" parent="w2JHaz7uP7hH5NqDD6UE-17" vertex="1">
          <mxGeometry y="108" width="1003" height="35" as="geometry" />
        </mxCell>
        <mxCell id="w2JHaz7uP7hH5NqDD6UE-29" value="" style="shape=partialRectangle;html=1;whiteSpace=wrap;connectable=0;strokeColor=inherit;overflow=hidden;fillColor=none;top=0;left=0;bottom=0;right=0;pointerEvents=1;fontSize=16;" parent="w2JHaz7uP7hH5NqDD6UE-28" vertex="1">
          <mxGeometry width="63" height="35" as="geometry">
            <mxRectangle width="63" height="35" as="alternateBounds" />
          </mxGeometry>
        </mxCell>
        <mxCell id="w2JHaz7uP7hH5NqDD6UE-30" value="event_name" style="shape=partialRectangle;html=1;whiteSpace=wrap;connectable=0;strokeColor=inherit;overflow=hidden;fillColor=none;top=0;left=0;bottom=0;right=0;pointerEvents=1;fontSize=16;" parent="w2JHaz7uP7hH5NqDD6UE-28" vertex="1">
          <mxGeometry x="63" width="170" height="35" as="geometry">
            <mxRectangle width="170" height="35" as="alternateBounds" />
          </mxGeometry>
        </mxCell>
        <mxCell id="w2JHaz7uP7hH5NqDD6UE-31" value="CharField" style="shape=partialRectangle;html=1;whiteSpace=wrap;connectable=0;strokeColor=inherit;overflow=hidden;fillColor=none;top=0;left=0;bottom=0;right=0;pointerEvents=1;fontSize=16;" parent="w2JHaz7uP7hH5NqDD6UE-28" vertex="1">
          <mxGeometry x="233" width="197" height="35" as="geometry">
            <mxRectangle width="197" height="35" as="alternateBounds" />
          </mxGeometry>
        </mxCell>
        <mxCell id="w2JHaz7uP7hH5NqDD6UE-32" value="max length = 75 |" style="shape=partialRectangle;html=1;whiteSpace=wrap;connectable=0;strokeColor=inherit;overflow=hidden;fillColor=none;top=0;left=0;bottom=0;right=0;pointerEvents=1;fontSize=16;" parent="w2JHaz7uP7hH5NqDD6UE-28" vertex="1">
          <mxGeometry x="430" width="573" height="35" as="geometry">
            <mxRectangle width="573" height="35" as="alternateBounds" />
          </mxGeometry>
        </mxCell>
        <mxCell id="w2JHaz7uP7hH5NqDD6UE-85" style="shape=tableRow;horizontal=0;startSize=0;swimlaneHead=0;swimlaneBody=0;strokeColor=inherit;top=0;left=0;bottom=0;right=0;collapsible=0;dropTarget=0;fillColor=none;points=[[0,0.5],[1,0.5]];portConstraint=eastwest;fontSize=16;" parent="w2JHaz7uP7hH5NqDD6UE-17" vertex="1">
          <mxGeometry y="143" width="1003" height="36" as="geometry" />
        </mxCell>
        <mxCell id="w2JHaz7uP7hH5NqDD6UE-86" style="shape=partialRectangle;html=1;whiteSpace=wrap;connectable=0;strokeColor=inherit;overflow=hidden;fillColor=none;top=0;left=0;bottom=0;right=0;pointerEvents=1;fontSize=16;" parent="w2JHaz7uP7hH5NqDD6UE-85" vertex="1">
          <mxGeometry width="63" height="36" as="geometry">
            <mxRectangle width="63" height="36" as="alternateBounds" />
          </mxGeometry>
        </mxCell>
        <mxCell id="w2JHaz7uP7hH5NqDD6UE-87" value="event_date" style="shape=partialRectangle;html=1;whiteSpace=wrap;connectable=0;strokeColor=inherit;overflow=hidden;fillColor=none;top=0;left=0;bottom=0;right=0;pointerEvents=1;fontSize=16;" parent="w2JHaz7uP7hH5NqDD6UE-85" vertex="1">
          <mxGeometry x="63" width="170" height="36" as="geometry">
            <mxRectangle width="170" height="36" as="alternateBounds" />
          </mxGeometry>
        </mxCell>
        <mxCell id="w2JHaz7uP7hH5NqDD6UE-88" value="DateTimeField" style="shape=partialRectangle;html=1;whiteSpace=wrap;connectable=0;strokeColor=inherit;overflow=hidden;fillColor=none;top=0;left=0;bottom=0;right=0;pointerEvents=1;fontSize=16;" parent="w2JHaz7uP7hH5NqDD6UE-85" vertex="1">
          <mxGeometry x="233" width="197" height="36" as="geometry">
            <mxRectangle width="197" height="36" as="alternateBounds" />
          </mxGeometry>
        </mxCell>
        <mxCell id="w2JHaz7uP7hH5NqDD6UE-89" value="date of event occuring, to be validated in the input form" style="shape=partialRectangle;html=1;whiteSpace=wrap;connectable=0;strokeColor=inherit;overflow=hidden;fillColor=none;top=0;left=0;bottom=0;right=0;pointerEvents=1;fontSize=16;" parent="w2JHaz7uP7hH5NqDD6UE-85" vertex="1">
          <mxGeometry x="430" width="573" height="36" as="geometry">
            <mxRectangle width="573" height="36" as="alternateBounds" />
          </mxGeometry>
        </mxCell>
        <mxCell id="Jhk2qc18iemRGYJZ5KQD-61" style="shape=tableRow;horizontal=0;startSize=0;swimlaneHead=0;swimlaneBody=0;strokeColor=inherit;top=0;left=0;bottom=0;right=0;collapsible=0;dropTarget=0;fillColor=none;points=[[0,0.5],[1,0.5]];portConstraint=eastwest;fontSize=16;" parent="w2JHaz7uP7hH5NqDD6UE-17" vertex="1">
          <mxGeometry y="179" width="1003" height="77" as="geometry" />
        </mxCell>
        <mxCell id="Jhk2qc18iemRGYJZ5KQD-62" style="shape=partialRectangle;html=1;whiteSpace=wrap;connectable=0;strokeColor=inherit;overflow=hidden;fillColor=none;top=0;left=0;bottom=0;right=0;pointerEvents=1;fontSize=16;" parent="Jhk2qc18iemRGYJZ5KQD-61" vertex="1">
          <mxGeometry width="63" height="77" as="geometry">
            <mxRectangle width="63" height="77" as="alternateBounds" />
          </mxGeometry>
        </mxCell>
        <mxCell id="Jhk2qc18iemRGYJZ5KQD-63" value="is_online" style="shape=partialRectangle;html=1;whiteSpace=wrap;connectable=0;strokeColor=inherit;overflow=hidden;fillColor=none;top=0;left=0;bottom=0;right=0;pointerEvents=1;fontSize=16;" parent="Jhk2qc18iemRGYJZ5KQD-61" vertex="1">
          <mxGeometry x="63" width="170" height="77" as="geometry">
            <mxRectangle width="170" height="77" as="alternateBounds" />
          </mxGeometry>
        </mxCell>
        <mxCell id="Jhk2qc18iemRGYJZ5KQD-64" value="BooleanField" style="shape=partialRectangle;html=1;whiteSpace=wrap;connectable=0;strokeColor=inherit;overflow=hidden;fillColor=none;top=0;left=0;bottom=0;right=0;pointerEvents=1;fontSize=16;" parent="Jhk2qc18iemRGYJZ5KQD-61" vertex="1">
          <mxGeometry x="233" width="197" height="77" as="geometry">
            <mxRectangle width="197" height="77" as="alternateBounds" />
          </mxGeometry>
        </mxCell>
        <mxCell id="Jhk2qc18iemRGYJZ5KQD-65" value="&amp;nbsp;default = false | if event is online user is prompted to provide a url to join visible only to attendees when the event goes live. If not online user is prompted to enter an address below" style="shape=partialRectangle;html=1;whiteSpace=wrap;connectable=0;strokeColor=inherit;overflow=hidden;fillColor=none;top=0;left=0;bottom=0;right=0;pointerEvents=1;fontSize=16;" parent="Jhk2qc18iemRGYJZ5KQD-61" vertex="1">
          <mxGeometry x="430" width="573" height="77" as="geometry">
            <mxRectangle width="573" height="77" as="alternateBounds" />
          </mxGeometry>
        </mxCell>
        <mxCell id="w2JHaz7uP7hH5NqDD6UE-90" style="shape=tableRow;horizontal=0;startSize=0;swimlaneHead=0;swimlaneBody=0;strokeColor=inherit;top=0;left=0;bottom=0;right=0;collapsible=0;dropTarget=0;fillColor=none;points=[[0,0.5],[1,0.5]];portConstraint=eastwest;fontSize=16;" parent="w2JHaz7uP7hH5NqDD6UE-17" vertex="1">
          <mxGeometry y="256" width="1003" height="54" as="geometry" />
        </mxCell>
        <mxCell id="w2JHaz7uP7hH5NqDD6UE-91" style="shape=partialRectangle;html=1;whiteSpace=wrap;connectable=0;strokeColor=inherit;overflow=hidden;fillColor=none;top=0;left=0;bottom=0;right=0;pointerEvents=1;fontSize=16;" parent="w2JHaz7uP7hH5NqDD6UE-90" vertex="1">
          <mxGeometry width="63" height="54" as="geometry">
            <mxRectangle width="63" height="54" as="alternateBounds" />
          </mxGeometry>
        </mxCell>
        <mxCell id="w2JHaz7uP7hH5NqDD6UE-92" value="url_or_address" style="shape=partialRectangle;html=1;whiteSpace=wrap;connectable=0;strokeColor=inherit;overflow=hidden;fillColor=none;top=0;left=0;bottom=0;right=0;pointerEvents=1;fontSize=16;" parent="w2JHaz7uP7hH5NqDD6UE-90" vertex="1">
          <mxGeometry x="63" width="170" height="54" as="geometry">
            <mxRectangle width="170" height="54" as="alternateBounds" />
          </mxGeometry>
        </mxCell>
        <mxCell id="w2JHaz7uP7hH5NqDD6UE-93" value="Char" style="shape=partialRectangle;html=1;whiteSpace=wrap;connectable=0;strokeColor=inherit;overflow=hidden;fillColor=none;top=0;left=0;bottom=0;right=0;pointerEvents=1;fontSize=16;" parent="w2JHaz7uP7hH5NqDD6UE-90" vertex="1">
          <mxGeometry x="233" width="197" height="54" as="geometry">
            <mxRectangle width="197" height="54" as="alternateBounds" />
          </mxGeometry>
        </mxCell>
        <mxCell id="w2JHaz7uP7hH5NqDD6UE-94" value="max length = 100 | name of field on form changes depending on if is_online is true or not" style="shape=partialRectangle;html=1;whiteSpace=wrap;connectable=0;strokeColor=inherit;overflow=hidden;fillColor=none;top=0;left=0;bottom=0;right=0;pointerEvents=1;fontSize=16;" parent="w2JHaz7uP7hH5NqDD6UE-90" vertex="1">
          <mxGeometry x="430" width="573" height="54" as="geometry">
            <mxRectangle width="573" height="54" as="alternateBounds" />
          </mxGeometry>
        </mxCell>
        <mxCell id="w2JHaz7uP7hH5NqDD6UE-95" style="shape=tableRow;horizontal=0;startSize=0;swimlaneHead=0;swimlaneBody=0;strokeColor=inherit;top=0;left=0;bottom=0;right=0;collapsible=0;dropTarget=0;fillColor=none;points=[[0,0.5],[1,0.5]];portConstraint=eastwest;fontSize=16;" parent="w2JHaz7uP7hH5NqDD6UE-17" vertex="1">
          <mxGeometry y="310" width="1003" height="35" as="geometry" />
        </mxCell>
        <mxCell id="w2JHaz7uP7hH5NqDD6UE-96" style="shape=partialRectangle;html=1;whiteSpace=wrap;connectable=0;strokeColor=inherit;overflow=hidden;fillColor=none;top=0;left=0;bottom=0;right=0;pointerEvents=1;fontSize=16;" parent="w2JHaz7uP7hH5NqDD6UE-95" vertex="1">
          <mxGeometry width="63" height="35" as="geometry">
            <mxRectangle width="63" height="35" as="alternateBounds" />
          </mxGeometry>
        </mxCell>
        <mxCell id="w2JHaz7uP7hH5NqDD6UE-97" value="maximum_attendees" style="shape=partialRectangle;html=1;whiteSpace=wrap;connectable=0;strokeColor=inherit;overflow=hidden;fillColor=none;top=0;left=0;bottom=0;right=0;pointerEvents=1;fontSize=16;" parent="w2JHaz7uP7hH5NqDD6UE-95" vertex="1">
          <mxGeometry x="63" width="170" height="35" as="geometry">
            <mxRectangle width="170" height="35" as="alternateBounds" />
          </mxGeometry>
        </mxCell>
        <mxCell id="w2JHaz7uP7hH5NqDD6UE-98" value="PositiveSmallIntegerField" style="shape=partialRectangle;html=1;whiteSpace=wrap;connectable=0;strokeColor=inherit;overflow=hidden;fillColor=none;top=0;left=0;bottom=0;right=0;pointerEvents=1;fontSize=16;" parent="w2JHaz7uP7hH5NqDD6UE-95" vertex="1">
          <mxGeometry x="233" width="197" height="35" as="geometry">
            <mxRectangle width="197" height="35" as="alternateBounds" />
          </mxGeometry>
        </mxCell>
        <mxCell id="w2JHaz7uP7hH5NqDD6UE-99" style="shape=partialRectangle;html=1;whiteSpace=wrap;connectable=0;strokeColor=inherit;overflow=hidden;fillColor=none;top=0;left=0;bottom=0;right=0;pointerEvents=1;fontSize=16;" parent="w2JHaz7uP7hH5NqDD6UE-95" vertex="1">
          <mxGeometry x="430" width="573" height="35" as="geometry">
            <mxRectangle width="573" height="35" as="alternateBounds" />
          </mxGeometry>
        </mxCell>
        <mxCell id="oC64nerQ9CRqtGgoc1SY-16" style="shape=tableRow;horizontal=0;startSize=0;swimlaneHead=0;swimlaneBody=0;strokeColor=inherit;top=0;left=0;bottom=0;right=0;collapsible=0;dropTarget=0;fillColor=none;points=[[0,0.5],[1,0.5]];portConstraint=eastwest;fontSize=16;" parent="w2JHaz7uP7hH5NqDD6UE-17" vertex="1">
          <mxGeometry y="345" width="1003" height="35" as="geometry" />
        </mxCell>
        <mxCell id="oC64nerQ9CRqtGgoc1SY-17" value="FK" style="shape=partialRectangle;html=1;whiteSpace=wrap;connectable=0;strokeColor=inherit;overflow=hidden;fillColor=none;top=0;left=0;bottom=0;right=0;pointerEvents=1;fontSize=16;" parent="oC64nerQ9CRqtGgoc1SY-16" vertex="1">
          <mxGeometry width="63" height="35" as="geometry">
            <mxRectangle width="63" height="35" as="alternateBounds" />
          </mxGeometry>
        </mxCell>
        <mxCell id="oC64nerQ9CRqtGgoc1SY-18" value="current_attendees" style="shape=partialRectangle;html=1;whiteSpace=wrap;connectable=0;strokeColor=inherit;overflow=hidden;fillColor=none;top=0;left=0;bottom=0;right=0;pointerEvents=1;fontSize=16;" parent="oC64nerQ9CRqtGgoc1SY-16" vertex="1">
          <mxGeometry x="63" width="170" height="35" as="geometry">
            <mxRectangle width="170" height="35" as="alternateBounds" />
          </mxGeometry>
        </mxCell>
        <mxCell id="oC64nerQ9CRqtGgoc1SY-19" style="shape=partialRectangle;html=1;whiteSpace=wrap;connectable=0;strokeColor=inherit;overflow=hidden;fillColor=none;top=0;left=0;bottom=0;right=0;pointerEvents=1;fontSize=16;" parent="oC64nerQ9CRqtGgoc1SY-16" vertex="1">
          <mxGeometry x="233" width="197" height="35" as="geometry">
            <mxRectangle width="197" height="35" as="alternateBounds" />
          </mxGeometry>
        </mxCell>
        <mxCell id="oC64nerQ9CRqtGgoc1SY-20" value="many-to-many relationship with user model via the booking table" style="shape=partialRectangle;html=1;whiteSpace=wrap;connectable=0;strokeColor=inherit;overflow=hidden;fillColor=none;top=0;left=0;bottom=0;right=0;pointerEvents=1;fontSize=16;" parent="oC64nerQ9CRqtGgoc1SY-16" vertex="1">
          <mxGeometry x="430" width="573" height="35" as="geometry">
            <mxRectangle width="573" height="35" as="alternateBounds" />
          </mxGeometry>
        </mxCell>
        <mxCell id="w2JHaz7uP7hH5NqDD6UE-100" style="shape=tableRow;horizontal=0;startSize=0;swimlaneHead=0;swimlaneBody=0;strokeColor=inherit;top=0;left=0;bottom=0;right=0;collapsible=0;dropTarget=0;fillColor=none;points=[[0,0.5],[1,0.5]];portConstraint=eastwest;fontSize=16;" parent="w2JHaz7uP7hH5NqDD6UE-17" vertex="1">
          <mxGeometry y="380" width="1003" height="25" as="geometry" />
        </mxCell>
        <mxCell id="w2JHaz7uP7hH5NqDD6UE-101" style="shape=partialRectangle;html=1;whiteSpace=wrap;connectable=0;strokeColor=inherit;overflow=hidden;fillColor=none;top=0;left=0;bottom=0;right=0;pointerEvents=1;fontSize=16;" parent="w2JHaz7uP7hH5NqDD6UE-100" vertex="1">
          <mxGeometry width="63" height="25" as="geometry">
            <mxRectangle width="63" height="25" as="alternateBounds" />
          </mxGeometry>
        </mxCell>
        <mxCell id="w2JHaz7uP7hH5NqDD6UE-102" value="short_description" style="shape=partialRectangle;html=1;whiteSpace=wrap;connectable=0;strokeColor=inherit;overflow=hidden;fillColor=none;top=0;left=0;bottom=0;right=0;pointerEvents=1;fontSize=16;" parent="w2JHaz7uP7hH5NqDD6UE-100" vertex="1">
          <mxGeometry x="63" width="170" height="25" as="geometry">
            <mxRectangle width="170" height="25" as="alternateBounds" />
          </mxGeometry>
        </mxCell>
        <mxCell id="w2JHaz7uP7hH5NqDD6UE-103" value="TextField" style="shape=partialRectangle;html=1;whiteSpace=wrap;connectable=0;strokeColor=inherit;overflow=hidden;fillColor=none;top=0;left=0;bottom=0;right=0;pointerEvents=1;fontSize=16;" parent="w2JHaz7uP7hH5NqDD6UE-100" vertex="1">
          <mxGeometry x="233" width="197" height="25" as="geometry">
            <mxRectangle width="197" height="25" as="alternateBounds" />
          </mxGeometry>
        </mxCell>
        <mxCell id="w2JHaz7uP7hH5NqDD6UE-104" value="max length 200 characters" style="shape=partialRectangle;html=1;whiteSpace=wrap;connectable=0;strokeColor=inherit;overflow=hidden;fillColor=none;top=0;left=0;bottom=0;right=0;pointerEvents=1;fontSize=16;" parent="w2JHaz7uP7hH5NqDD6UE-100" vertex="1">
          <mxGeometry x="430" width="573" height="25" as="geometry">
            <mxRectangle width="573" height="25" as="alternateBounds" />
          </mxGeometry>
        </mxCell>
        <mxCell id="w2JHaz7uP7hH5NqDD6UE-105" style="shape=tableRow;horizontal=0;startSize=0;swimlaneHead=0;swimlaneBody=0;strokeColor=inherit;top=0;left=0;bottom=0;right=0;collapsible=0;dropTarget=0;fillColor=none;points=[[0,0.5],[1,0.5]];portConstraint=eastwest;fontSize=16;" parent="w2JHaz7uP7hH5NqDD6UE-17" vertex="1">
          <mxGeometry y="405" width="1003" height="60" as="geometry" />
        </mxCell>
        <mxCell id="w2JHaz7uP7hH5NqDD6UE-106" style="shape=partialRectangle;html=1;whiteSpace=wrap;connectable=0;strokeColor=inherit;overflow=hidden;fillColor=none;top=0;left=0;bottom=0;right=0;pointerEvents=1;fontSize=16;" parent="w2JHaz7uP7hH5NqDD6UE-105" vertex="1">
          <mxGeometry width="63" height="60" as="geometry">
            <mxRectangle width="63" height="60" as="alternateBounds" />
          </mxGeometry>
        </mxCell>
        <mxCell id="w2JHaz7uP7hH5NqDD6UE-107" value="image" style="shape=partialRectangle;html=1;whiteSpace=wrap;connectable=0;strokeColor=inherit;overflow=hidden;fillColor=none;top=0;left=0;bottom=0;right=0;pointerEvents=1;fontSize=16;" parent="w2JHaz7uP7hH5NqDD6UE-105" vertex="1">
          <mxGeometry x="63" width="170" height="60" as="geometry">
            <mxRectangle width="170" height="60" as="alternateBounds" />
          </mxGeometry>
        </mxCell>
        <mxCell id="w2JHaz7uP7hH5NqDD6UE-108" value="CloudinaryField" style="shape=partialRectangle;html=1;whiteSpace=wrap;connectable=0;strokeColor=inherit;overflow=hidden;fillColor=none;top=0;left=0;bottom=0;right=0;pointerEvents=1;fontSize=16;" parent="w2JHaz7uP7hH5NqDD6UE-105" vertex="1">
          <mxGeometry x="233" width="197" height="60" as="geometry">
            <mxRectangle width="197" height="60" as="alternateBounds" />
          </mxGeometry>
        </mxCell>
        <mxCell id="w2JHaz7uP7hH5NqDD6UE-109" value="Cloudinary to be used to store event images, image required to submit event, validated in form" style="shape=partialRectangle;html=1;whiteSpace=wrap;connectable=0;strokeColor=inherit;overflow=hidden;fillColor=none;top=0;left=0;bottom=0;right=0;pointerEvents=1;fontSize=16;" parent="w2JHaz7uP7hH5NqDD6UE-105" vertex="1">
          <mxGeometry x="430" width="573" height="60" as="geometry">
            <mxRectangle width="573" height="60" as="alternateBounds" />
          </mxGeometry>
        </mxCell>
        <mxCell id="w2JHaz7uP7hH5NqDD6UE-111" style="shape=tableRow;horizontal=0;startSize=0;swimlaneHead=0;swimlaneBody=0;strokeColor=inherit;top=0;left=0;bottom=0;right=0;collapsible=0;dropTarget=0;fillColor=none;points=[[0,0.5],[1,0.5]];portConstraint=eastwest;fontSize=16;" parent="w2JHaz7uP7hH5NqDD6UE-17" vertex="1">
          <mxGeometry y="465" width="1003" height="36" as="geometry" />
        </mxCell>
        <mxCell id="w2JHaz7uP7hH5NqDD6UE-112" style="shape=partialRectangle;html=1;whiteSpace=wrap;connectable=0;strokeColor=inherit;overflow=hidden;fillColor=none;top=0;left=0;bottom=0;right=0;pointerEvents=1;fontSize=16;" parent="w2JHaz7uP7hH5NqDD6UE-111" vertex="1">
          <mxGeometry width="63" height="36" as="geometry">
            <mxRectangle width="63" height="36" as="alternateBounds" />
          </mxGeometry>
        </mxCell>
        <mxCell id="w2JHaz7uP7hH5NqDD6UE-113" value="long_description" style="shape=partialRectangle;html=1;whiteSpace=wrap;connectable=0;strokeColor=inherit;overflow=hidden;fillColor=none;top=0;left=0;bottom=0;right=0;pointerEvents=1;fontSize=16;" parent="w2JHaz7uP7hH5NqDD6UE-111" vertex="1">
          <mxGeometry x="63" width="170" height="36" as="geometry">
            <mxRectangle width="170" height="36" as="alternateBounds" />
          </mxGeometry>
        </mxCell>
        <mxCell id="w2JHaz7uP7hH5NqDD6UE-114" value="TextField" style="shape=partialRectangle;html=1;whiteSpace=wrap;connectable=0;strokeColor=inherit;overflow=hidden;fillColor=none;top=0;left=0;bottom=0;right=0;pointerEvents=1;fontSize=16;" parent="w2JHaz7uP7hH5NqDD6UE-111" vertex="1">
          <mxGeometry x="233" width="197" height="36" as="geometry">
            <mxRectangle width="197" height="36" as="alternateBounds" />
          </mxGeometry>
        </mxCell>
        <mxCell id="w2JHaz7uP7hH5NqDD6UE-115" value="max_length = 3000 | Formatting to be enhanced using summernote." style="shape=partialRectangle;html=1;whiteSpace=wrap;connectable=0;strokeColor=inherit;overflow=hidden;fillColor=none;top=0;left=0;bottom=0;right=0;pointerEvents=1;fontSize=16;" parent="w2JHaz7uP7hH5NqDD6UE-111" vertex="1">
          <mxGeometry x="430" width="573" height="36" as="geometry">
            <mxRectangle width="573" height="36" as="alternateBounds" />
          </mxGeometry>
        </mxCell>
        <mxCell id="w2JHaz7uP7hH5NqDD6UE-121" style="shape=tableRow;horizontal=0;startSize=0;swimlaneHead=0;swimlaneBody=0;strokeColor=inherit;top=0;left=0;bottom=0;right=0;collapsible=0;dropTarget=0;fillColor=none;points=[[0,0.5],[1,0.5]];portConstraint=eastwest;fontSize=16;" parent="w2JHaz7uP7hH5NqDD6UE-17" vertex="1">
          <mxGeometry y="501" width="1003" height="68" as="geometry" />
        </mxCell>
        <mxCell id="w2JHaz7uP7hH5NqDD6UE-122" value="FK" style="shape=partialRectangle;html=1;whiteSpace=wrap;connectable=0;strokeColor=inherit;overflow=hidden;fillColor=none;top=0;left=0;bottom=0;right=0;pointerEvents=1;fontSize=16;" parent="w2JHaz7uP7hH5NqDD6UE-121" vertex="1">
          <mxGeometry width="63" height="68" as="geometry">
            <mxRectangle width="63" height="68" as="alternateBounds" />
          </mxGeometry>
        </mxCell>
        <mxCell id="w2JHaz7uP7hH5NqDD6UE-123" value="event_organiser" style="shape=partialRectangle;html=1;whiteSpace=wrap;connectable=0;strokeColor=inherit;overflow=hidden;fillColor=none;top=0;left=0;bottom=0;right=0;pointerEvents=1;fontSize=16;" parent="w2JHaz7uP7hH5NqDD6UE-121" vertex="1">
          <mxGeometry x="63" width="170" height="68" as="geometry">
            <mxRectangle width="170" height="68" as="alternateBounds" />
          </mxGeometry>
        </mxCell>
        <mxCell id="w2JHaz7uP7hH5NqDD6UE-124" value="User Model" style="shape=partialRectangle;html=1;whiteSpace=wrap;connectable=0;strokeColor=inherit;overflow=hidden;fillColor=none;top=0;left=0;bottom=0;right=0;pointerEvents=1;fontSize=16;" parent="w2JHaz7uP7hH5NqDD6UE-121" vertex="1">
          <mxGeometry x="233" width="197" height="68" as="geometry">
            <mxRectangle width="197" height="68" as="alternateBounds" />
          </mxGeometry>
        </mxCell>
        <mxCell id="w2JHaz7uP7hH5NqDD6UE-125" value="many-to-one relationship to User model - method to return event organiser&#39;s full name included" style="shape=partialRectangle;html=1;whiteSpace=wrap;connectable=0;strokeColor=inherit;overflow=hidden;fillColor=none;top=0;left=0;bottom=0;right=0;pointerEvents=1;fontSize=16;" parent="w2JHaz7uP7hH5NqDD6UE-121" vertex="1">
          <mxGeometry x="430" width="573" height="68" as="geometry">
            <mxRectangle width="573" height="68" as="alternateBounds" />
          </mxGeometry>
        </mxCell>
        <mxCell id="w2JHaz7uP7hH5NqDD6UE-126" style="shape=tableRow;horizontal=0;startSize=0;swimlaneHead=0;swimlaneBody=0;strokeColor=inherit;top=0;left=0;bottom=0;right=0;collapsible=0;dropTarget=0;fillColor=none;points=[[0,0.5],[1,0.5]];portConstraint=eastwest;fontSize=16;" parent="w2JHaz7uP7hH5NqDD6UE-17" vertex="1">
          <mxGeometry y="569" width="1003" height="35" as="geometry" />
        </mxCell>
        <mxCell id="w2JHaz7uP7hH5NqDD6UE-127" value="" style="shape=partialRectangle;html=1;whiteSpace=wrap;connectable=0;strokeColor=inherit;overflow=hidden;fillColor=none;top=0;left=0;bottom=0;right=0;pointerEvents=1;fontSize=16;" parent="w2JHaz7uP7hH5NqDD6UE-126" vertex="1">
          <mxGeometry width="63" height="35" as="geometry">
            <mxRectangle width="63" height="35" as="alternateBounds" />
          </mxGeometry>
        </mxCell>
        <mxCell id="w2JHaz7uP7hH5NqDD6UE-128" value="created_on" style="shape=partialRectangle;html=1;whiteSpace=wrap;connectable=0;strokeColor=inherit;overflow=hidden;fillColor=none;top=0;left=0;bottom=0;right=0;pointerEvents=1;fontSize=16;" parent="w2JHaz7uP7hH5NqDD6UE-126" vertex="1">
          <mxGeometry x="63" width="170" height="35" as="geometry">
            <mxRectangle width="170" height="35" as="alternateBounds" />
          </mxGeometry>
        </mxCell>
        <mxCell id="w2JHaz7uP7hH5NqDD6UE-129" value="DateTimeField" style="shape=partialRectangle;html=1;whiteSpace=wrap;connectable=0;strokeColor=inherit;overflow=hidden;fillColor=none;top=0;left=0;bottom=0;right=0;pointerEvents=1;fontSize=16;" parent="w2JHaz7uP7hH5NqDD6UE-126" vertex="1">
          <mxGeometry x="233" width="197" height="35" as="geometry">
            <mxRectangle width="197" height="35" as="alternateBounds" />
          </mxGeometry>
        </mxCell>
        <mxCell id="w2JHaz7uP7hH5NqDD6UE-130" value="auto_now_add = true" style="shape=partialRectangle;html=1;whiteSpace=wrap;connectable=0;strokeColor=inherit;overflow=hidden;fillColor=none;top=0;left=0;bottom=0;right=0;pointerEvents=1;fontSize=16;" parent="w2JHaz7uP7hH5NqDD6UE-126" vertex="1">
          <mxGeometry x="430" width="573" height="35" as="geometry">
            <mxRectangle width="573" height="35" as="alternateBounds" />
          </mxGeometry>
        </mxCell>
        <mxCell id="yGobTbZYCNl5wQGwiJMD-6" style="shape=tableRow;horizontal=0;startSize=0;swimlaneHead=0;swimlaneBody=0;strokeColor=inherit;top=0;left=0;bottom=0;right=0;collapsible=0;dropTarget=0;fillColor=none;points=[[0,0.5],[1,0.5]];portConstraint=eastwest;fontSize=16;" parent="w2JHaz7uP7hH5NqDD6UE-17" vertex="1">
          <mxGeometry y="604" width="1003" height="35" as="geometry" />
        </mxCell>
        <mxCell id="yGobTbZYCNl5wQGwiJMD-7" style="shape=partialRectangle;html=1;whiteSpace=wrap;connectable=0;strokeColor=inherit;overflow=hidden;fillColor=none;top=0;left=0;bottom=0;right=0;pointerEvents=1;fontSize=16;" parent="yGobTbZYCNl5wQGwiJMD-6" vertex="1">
          <mxGeometry width="63" height="35" as="geometry">
            <mxRectangle width="63" height="35" as="alternateBounds" />
          </mxGeometry>
        </mxCell>
        <mxCell id="yGobTbZYCNl5wQGwiJMD-8" value="updated_on" style="shape=partialRectangle;html=1;whiteSpace=wrap;connectable=0;strokeColor=inherit;overflow=hidden;fillColor=none;top=0;left=0;bottom=0;right=0;pointerEvents=1;fontSize=16;" parent="yGobTbZYCNl5wQGwiJMD-6" vertex="1">
          <mxGeometry x="63" width="170" height="35" as="geometry">
            <mxRectangle width="170" height="35" as="alternateBounds" />
          </mxGeometry>
        </mxCell>
        <mxCell id="yGobTbZYCNl5wQGwiJMD-9" value="DateTimeField" style="shape=partialRectangle;html=1;whiteSpace=wrap;connectable=0;strokeColor=inherit;overflow=hidden;fillColor=none;top=0;left=0;bottom=0;right=0;pointerEvents=1;fontSize=16;" parent="yGobTbZYCNl5wQGwiJMD-6" vertex="1">
          <mxGeometry x="233" width="197" height="35" as="geometry">
            <mxRectangle width="197" height="35" as="alternateBounds" />
          </mxGeometry>
        </mxCell>
        <mxCell id="yGobTbZYCNl5wQGwiJMD-10" value="auto_now = true" style="shape=partialRectangle;html=1;whiteSpace=wrap;connectable=0;strokeColor=inherit;overflow=hidden;fillColor=none;top=0;left=0;bottom=0;right=0;pointerEvents=1;fontSize=16;" parent="yGobTbZYCNl5wQGwiJMD-6" vertex="1">
          <mxGeometry x="430" width="573" height="35" as="geometry">
            <mxRectangle width="573" height="35" as="alternateBounds" />
          </mxGeometry>
        </mxCell>
        <mxCell id="w2JHaz7uP7hH5NqDD6UE-110" style="edgeStyle=orthogonalEdgeStyle;rounded=0;orthogonalLoop=1;jettySize=auto;html=1;exitX=1;exitY=0.5;exitDx=0;exitDy=0;" parent="w2JHaz7uP7hH5NqDD6UE-17" source="w2JHaz7uP7hH5NqDD6UE-85" target="w2JHaz7uP7hH5NqDD6UE-85" edge="1">
          <mxGeometry relative="1" as="geometry" />
        </mxCell>
        <mxCell id="w2JHaz7uP7hH5NqDD6UE-33" value="Comment" style="shape=table;startSize=30;container=1;collapsible=0;childLayout=tableLayout;strokeColor=#b85450;fontSize=16;fillColor=#f8cecc;" parent="1" vertex="1">
          <mxGeometry x="-613" y="470" width="1496" height="237.5" as="geometry" />
        </mxCell>
        <mxCell id="w2JHaz7uP7hH5NqDD6UE-34" value="" style="shape=tableRow;horizontal=0;startSize=0;swimlaneHead=0;swimlaneBody=0;strokeColor=inherit;top=0;left=0;bottom=0;right=0;collapsible=0;dropTarget=0;fillColor=none;points=[[0,0.5],[1,0.5]];portConstraint=eastwest;fontSize=16;" parent="w2JHaz7uP7hH5NqDD6UE-33" vertex="1">
          <mxGeometry y="30" width="1496" height="29" as="geometry" />
        </mxCell>
        <mxCell id="w2JHaz7uP7hH5NqDD6UE-35" value="Key" style="shape=partialRectangle;html=1;whiteSpace=wrap;connectable=0;strokeColor=inherit;overflow=hidden;fillColor=none;top=0;left=0;bottom=0;right=0;pointerEvents=1;fontSize=16;" parent="w2JHaz7uP7hH5NqDD6UE-34" vertex="1">
          <mxGeometry width="87" height="29" as="geometry">
            <mxRectangle width="87" height="29" as="alternateBounds" />
          </mxGeometry>
        </mxCell>
        <mxCell id="w2JHaz7uP7hH5NqDD6UE-36" value="Name" style="shape=partialRectangle;html=1;whiteSpace=wrap;connectable=0;strokeColor=inherit;overflow=hidden;fillColor=none;top=0;left=0;bottom=0;right=0;pointerEvents=1;fontSize=16;" parent="w2JHaz7uP7hH5NqDD6UE-34" vertex="1">
          <mxGeometry x="87" width="137" height="29" as="geometry">
            <mxRectangle width="137" height="29" as="alternateBounds" />
          </mxGeometry>
        </mxCell>
        <mxCell id="w2JHaz7uP7hH5NqDD6UE-37" value="Type" style="shape=partialRectangle;html=1;whiteSpace=wrap;connectable=0;strokeColor=inherit;overflow=hidden;fillColor=none;top=0;left=0;bottom=0;right=0;pointerEvents=1;fontSize=16;" parent="w2JHaz7uP7hH5NqDD6UE-34" vertex="1">
          <mxGeometry x="224" width="163" height="29" as="geometry">
            <mxRectangle width="163" height="29" as="alternateBounds" />
          </mxGeometry>
        </mxCell>
        <mxCell id="w2JHaz7uP7hH5NqDD6UE-38" value="Additional Info" style="shape=partialRectangle;html=1;whiteSpace=wrap;connectable=0;strokeColor=inherit;overflow=hidden;fillColor=none;top=0;left=0;bottom=0;right=0;pointerEvents=1;fontSize=16;" parent="w2JHaz7uP7hH5NqDD6UE-34" vertex="1">
          <mxGeometry x="387" width="1109" height="29" as="geometry">
            <mxRectangle width="1109" height="29" as="alternateBounds" />
          </mxGeometry>
        </mxCell>
        <mxCell id="w2JHaz7uP7hH5NqDD6UE-39" value="" style="shape=tableRow;horizontal=0;startSize=0;swimlaneHead=0;swimlaneBody=0;strokeColor=inherit;top=0;left=0;bottom=0;right=0;collapsible=0;dropTarget=0;fillColor=none;points=[[0,0.5],[1,0.5]];portConstraint=eastwest;fontSize=16;" parent="w2JHaz7uP7hH5NqDD6UE-33" vertex="1">
          <mxGeometry y="59" width="1496" height="27" as="geometry" />
        </mxCell>
        <mxCell id="w2JHaz7uP7hH5NqDD6UE-40" value="PK" style="shape=partialRectangle;html=1;whiteSpace=wrap;connectable=0;strokeColor=inherit;overflow=hidden;fillColor=none;top=0;left=0;bottom=0;right=0;pointerEvents=1;fontSize=16;" parent="w2JHaz7uP7hH5NqDD6UE-39" vertex="1">
          <mxGeometry width="87" height="27" as="geometry">
            <mxRectangle width="87" height="27" as="alternateBounds" />
          </mxGeometry>
        </mxCell>
        <mxCell id="w2JHaz7uP7hH5NqDD6UE-41" value="comment_id" style="shape=partialRectangle;html=1;whiteSpace=wrap;connectable=0;strokeColor=inherit;overflow=hidden;fillColor=none;top=0;left=0;bottom=0;right=0;pointerEvents=1;fontSize=16;" parent="w2JHaz7uP7hH5NqDD6UE-39" vertex="1">
          <mxGeometry x="87" width="137" height="27" as="geometry">
            <mxRectangle width="137" height="27" as="alternateBounds" />
          </mxGeometry>
        </mxCell>
        <mxCell id="w2JHaz7uP7hH5NqDD6UE-42" value="PositiveInteger" style="shape=partialRectangle;html=1;whiteSpace=wrap;connectable=0;strokeColor=inherit;overflow=hidden;fillColor=none;top=0;left=0;bottom=0;right=0;pointerEvents=1;fontSize=16;" parent="w2JHaz7uP7hH5NqDD6UE-39" vertex="1">
          <mxGeometry x="224" width="163" height="27" as="geometry">
            <mxRectangle width="163" height="27" as="alternateBounds" />
          </mxGeometry>
        </mxCell>
        <mxCell id="w2JHaz7uP7hH5NqDD6UE-43" style="shape=partialRectangle;html=1;whiteSpace=wrap;connectable=0;strokeColor=inherit;overflow=hidden;fillColor=none;top=0;left=0;bottom=0;right=0;pointerEvents=1;fontSize=16;" parent="w2JHaz7uP7hH5NqDD6UE-39" vertex="1">
          <mxGeometry x="387" width="1109" height="27" as="geometry">
            <mxRectangle width="1109" height="27" as="alternateBounds" />
          </mxGeometry>
        </mxCell>
        <mxCell id="w2JHaz7uP7hH5NqDD6UE-44" value="" style="shape=tableRow;horizontal=0;startSize=0;swimlaneHead=0;swimlaneBody=0;strokeColor=inherit;top=0;left=0;bottom=0;right=0;collapsible=0;dropTarget=0;fillColor=none;points=[[0,0.5],[1,0.5]];portConstraint=eastwest;fontSize=16;" parent="w2JHaz7uP7hH5NqDD6UE-33" vertex="1">
          <mxGeometry y="86" width="1496" height="28" as="geometry" />
        </mxCell>
        <mxCell id="w2JHaz7uP7hH5NqDD6UE-45" value="FK" style="shape=partialRectangle;html=1;whiteSpace=wrap;connectable=0;strokeColor=inherit;overflow=hidden;fillColor=none;top=0;left=0;bottom=0;right=0;pointerEvents=1;fontSize=16;" parent="w2JHaz7uP7hH5NqDD6UE-44" vertex="1">
          <mxGeometry width="87" height="28" as="geometry">
            <mxRectangle width="87" height="28" as="alternateBounds" />
          </mxGeometry>
        </mxCell>
        <mxCell id="w2JHaz7uP7hH5NqDD6UE-46" value="event" style="shape=partialRectangle;html=1;whiteSpace=wrap;connectable=0;strokeColor=inherit;overflow=hidden;fillColor=none;top=0;left=0;bottom=0;right=0;pointerEvents=1;fontSize=16;" parent="w2JHaz7uP7hH5NqDD6UE-44" vertex="1">
          <mxGeometry x="87" width="137" height="28" as="geometry">
            <mxRectangle width="137" height="28" as="alternateBounds" />
          </mxGeometry>
        </mxCell>
        <mxCell id="w2JHaz7uP7hH5NqDD6UE-47" value="Event Model" style="shape=partialRectangle;html=1;whiteSpace=wrap;connectable=0;strokeColor=inherit;overflow=hidden;fillColor=none;top=0;left=0;bottom=0;right=0;pointerEvents=1;fontSize=16;" parent="w2JHaz7uP7hH5NqDD6UE-44" vertex="1">
          <mxGeometry x="224" width="163" height="28" as="geometry">
            <mxRectangle width="163" height="28" as="alternateBounds" />
          </mxGeometry>
        </mxCell>
        <mxCell id="w2JHaz7uP7hH5NqDD6UE-48" value="many-to-one relationship to Event Model" style="shape=partialRectangle;html=1;whiteSpace=wrap;connectable=0;strokeColor=inherit;overflow=hidden;fillColor=none;top=0;left=0;bottom=0;right=0;pointerEvents=1;fontSize=16;" parent="w2JHaz7uP7hH5NqDD6UE-44" vertex="1">
          <mxGeometry x="387" width="1109" height="28" as="geometry">
            <mxRectangle width="1109" height="28" as="alternateBounds" />
          </mxGeometry>
        </mxCell>
        <mxCell id="w2JHaz7uP7hH5NqDD6UE-131" style="shape=tableRow;horizontal=0;startSize=0;swimlaneHead=0;swimlaneBody=0;strokeColor=inherit;top=0;left=0;bottom=0;right=0;collapsible=0;dropTarget=0;fillColor=none;points=[[0,0.5],[1,0.5]];portConstraint=eastwest;fontSize=16;" parent="w2JHaz7uP7hH5NqDD6UE-33" vertex="1">
          <mxGeometry y="114" width="1496" height="27" as="geometry" />
        </mxCell>
        <mxCell id="w2JHaz7uP7hH5NqDD6UE-132" value="FK" style="shape=partialRectangle;html=1;whiteSpace=wrap;connectable=0;strokeColor=inherit;overflow=hidden;fillColor=none;top=0;left=0;bottom=0;right=0;pointerEvents=1;fontSize=16;" parent="w2JHaz7uP7hH5NqDD6UE-131" vertex="1">
          <mxGeometry width="87" height="27" as="geometry">
            <mxRectangle width="87" height="27" as="alternateBounds" />
          </mxGeometry>
        </mxCell>
        <mxCell id="w2JHaz7uP7hH5NqDD6UE-133" value="author" style="shape=partialRectangle;html=1;whiteSpace=wrap;connectable=0;strokeColor=inherit;overflow=hidden;fillColor=none;top=0;left=0;bottom=0;right=0;pointerEvents=1;fontSize=16;" parent="w2JHaz7uP7hH5NqDD6UE-131" vertex="1">
          <mxGeometry x="87" width="137" height="27" as="geometry">
            <mxRectangle width="137" height="27" as="alternateBounds" />
          </mxGeometry>
        </mxCell>
        <mxCell id="w2JHaz7uP7hH5NqDD6UE-134" value="User Model" style="shape=partialRectangle;html=1;whiteSpace=wrap;connectable=0;strokeColor=inherit;overflow=hidden;fillColor=none;top=0;left=0;bottom=0;right=0;pointerEvents=1;fontSize=16;" parent="w2JHaz7uP7hH5NqDD6UE-131" vertex="1">
          <mxGeometry x="224" width="163" height="27" as="geometry">
            <mxRectangle width="163" height="27" as="alternateBounds" />
          </mxGeometry>
        </mxCell>
        <mxCell id="w2JHaz7uP7hH5NqDD6UE-135" value="many-to-one relationship to User Model" style="shape=partialRectangle;html=1;whiteSpace=wrap;connectable=0;strokeColor=inherit;overflow=hidden;fillColor=none;top=0;left=0;bottom=0;right=0;pointerEvents=1;fontSize=16;" parent="w2JHaz7uP7hH5NqDD6UE-131" vertex="1">
          <mxGeometry x="387" width="1109" height="27" as="geometry">
            <mxRectangle width="1109" height="27" as="alternateBounds" />
          </mxGeometry>
        </mxCell>
        <mxCell id="w2JHaz7uP7hH5NqDD6UE-136" style="shape=tableRow;horizontal=0;startSize=0;swimlaneHead=0;swimlaneBody=0;strokeColor=inherit;top=0;left=0;bottom=0;right=0;collapsible=0;dropTarget=0;fillColor=none;points=[[0,0.5],[1,0.5]];portConstraint=eastwest;fontSize=16;" parent="w2JHaz7uP7hH5NqDD6UE-33" vertex="1">
          <mxGeometry y="141" width="1496" height="29" as="geometry" />
        </mxCell>
        <mxCell id="w2JHaz7uP7hH5NqDD6UE-137" style="shape=partialRectangle;html=1;whiteSpace=wrap;connectable=0;strokeColor=inherit;overflow=hidden;fillColor=none;top=0;left=0;bottom=0;right=0;pointerEvents=1;fontSize=16;" parent="w2JHaz7uP7hH5NqDD6UE-136" vertex="1">
          <mxGeometry width="87" height="29" as="geometry">
            <mxRectangle width="87" height="29" as="alternateBounds" />
          </mxGeometry>
        </mxCell>
        <mxCell id="w2JHaz7uP7hH5NqDD6UE-138" value="date" style="shape=partialRectangle;html=1;whiteSpace=wrap;connectable=0;strokeColor=inherit;overflow=hidden;fillColor=none;top=0;left=0;bottom=0;right=0;pointerEvents=1;fontSize=16;" parent="w2JHaz7uP7hH5NqDD6UE-136" vertex="1">
          <mxGeometry x="87" width="137" height="29" as="geometry">
            <mxRectangle width="137" height="29" as="alternateBounds" />
          </mxGeometry>
        </mxCell>
        <mxCell id="w2JHaz7uP7hH5NqDD6UE-139" value="DateTimeField" style="shape=partialRectangle;html=1;whiteSpace=wrap;connectable=0;strokeColor=inherit;overflow=hidden;fillColor=none;top=0;left=0;bottom=0;right=0;pointerEvents=1;fontSize=16;" parent="w2JHaz7uP7hH5NqDD6UE-136" vertex="1">
          <mxGeometry x="224" width="163" height="29" as="geometry">
            <mxRectangle width="163" height="29" as="alternateBounds" />
          </mxGeometry>
        </mxCell>
        <mxCell id="w2JHaz7uP7hH5NqDD6UE-140" value="auto_now_add = true |" style="shape=partialRectangle;html=1;whiteSpace=wrap;connectable=0;strokeColor=inherit;overflow=hidden;fillColor=none;top=0;left=0;bottom=0;right=0;pointerEvents=1;fontSize=16;" parent="w2JHaz7uP7hH5NqDD6UE-136" vertex="1">
          <mxGeometry x="387" width="1109" height="29" as="geometry">
            <mxRectangle width="1109" height="29" as="alternateBounds" />
          </mxGeometry>
        </mxCell>
        <mxCell id="w2JHaz7uP7hH5NqDD6UE-141" style="shape=tableRow;horizontal=0;startSize=0;swimlaneHead=0;swimlaneBody=0;strokeColor=inherit;top=0;left=0;bottom=0;right=0;collapsible=0;dropTarget=0;fillColor=none;points=[[0,0.5],[1,0.5]];portConstraint=eastwest;fontSize=16;" parent="w2JHaz7uP7hH5NqDD6UE-33" vertex="1">
          <mxGeometry y="170" width="1496" height="24" as="geometry" />
        </mxCell>
        <mxCell id="w2JHaz7uP7hH5NqDD6UE-142" style="shape=partialRectangle;html=1;whiteSpace=wrap;connectable=0;strokeColor=inherit;overflow=hidden;fillColor=none;top=0;left=0;bottom=0;right=0;pointerEvents=1;fontSize=16;" parent="w2JHaz7uP7hH5NqDD6UE-141" vertex="1">
          <mxGeometry width="87" height="24" as="geometry">
            <mxRectangle width="87" height="24" as="alternateBounds" />
          </mxGeometry>
        </mxCell>
        <mxCell id="w2JHaz7uP7hH5NqDD6UE-143" value="content" style="shape=partialRectangle;html=1;whiteSpace=wrap;connectable=0;strokeColor=inherit;overflow=hidden;fillColor=none;top=0;left=0;bottom=0;right=0;pointerEvents=1;fontSize=16;" parent="w2JHaz7uP7hH5NqDD6UE-141" vertex="1">
          <mxGeometry x="87" width="137" height="24" as="geometry">
            <mxRectangle width="137" height="24" as="alternateBounds" />
          </mxGeometry>
        </mxCell>
        <mxCell id="w2JHaz7uP7hH5NqDD6UE-144" value="TextField" style="shape=partialRectangle;html=1;whiteSpace=wrap;connectable=0;strokeColor=inherit;overflow=hidden;fillColor=none;top=0;left=0;bottom=0;right=0;pointerEvents=1;fontSize=16;" parent="w2JHaz7uP7hH5NqDD6UE-141" vertex="1">
          <mxGeometry x="224" width="163" height="24" as="geometry">
            <mxRectangle width="163" height="24" as="alternateBounds" />
          </mxGeometry>
        </mxCell>
        <mxCell id="w2JHaz7uP7hH5NqDD6UE-145" value="max_length = 300 |" style="shape=partialRectangle;html=1;whiteSpace=wrap;connectable=0;strokeColor=inherit;overflow=hidden;fillColor=none;top=0;left=0;bottom=0;right=0;pointerEvents=1;fontSize=16;" parent="w2JHaz7uP7hH5NqDD6UE-141" vertex="1">
          <mxGeometry x="387" width="1109" height="24" as="geometry">
            <mxRectangle width="1109" height="24" as="alternateBounds" />
          </mxGeometry>
        </mxCell>
        <mxCell id="w2JHaz7uP7hH5NqDD6UE-146" style="shape=tableRow;horizontal=0;startSize=0;swimlaneHead=0;swimlaneBody=0;strokeColor=inherit;top=0;left=0;bottom=0;right=0;collapsible=0;dropTarget=0;fillColor=none;points=[[0,0.5],[1,0.5]];portConstraint=eastwest;fontSize=16;" parent="w2JHaz7uP7hH5NqDD6UE-33" vertex="1">
          <mxGeometry y="194" width="1496" height="44" as="geometry" />
        </mxCell>
        <mxCell id="w2JHaz7uP7hH5NqDD6UE-147" value="FK" style="shape=partialRectangle;html=1;whiteSpace=wrap;connectable=0;strokeColor=inherit;overflow=hidden;fillColor=none;top=0;left=0;bottom=0;right=0;pointerEvents=1;fontSize=16;" parent="w2JHaz7uP7hH5NqDD6UE-146" vertex="1">
          <mxGeometry width="87" height="44" as="geometry">
            <mxRectangle width="87" height="44" as="alternateBounds" />
          </mxGeometry>
        </mxCell>
        <mxCell id="w2JHaz7uP7hH5NqDD6UE-148" value="parent" style="shape=partialRectangle;html=1;whiteSpace=wrap;connectable=0;strokeColor=inherit;overflow=hidden;fillColor=none;top=0;left=0;bottom=0;right=0;pointerEvents=1;fontSize=16;" parent="w2JHaz7uP7hH5NqDD6UE-146" vertex="1">
          <mxGeometry x="87" width="137" height="44" as="geometry">
            <mxRectangle width="137" height="44" as="alternateBounds" />
          </mxGeometry>
        </mxCell>
        <mxCell id="w2JHaz7uP7hH5NqDD6UE-149" value="Comment Model" style="shape=partialRectangle;html=1;whiteSpace=wrap;connectable=0;strokeColor=inherit;overflow=hidden;fillColor=none;top=0;left=0;bottom=0;right=0;pointerEvents=1;fontSize=16;" parent="w2JHaz7uP7hH5NqDD6UE-146" vertex="1">
          <mxGeometry x="224" width="163" height="44" as="geometry">
            <mxRectangle width="163" height="44" as="alternateBounds" />
          </mxGeometry>
        </mxCell>
        <mxCell id="w2JHaz7uP7hH5NqDD6UE-150" value="blank = true | allows a comment to be a reply to another user&#39;s comment. many-to-one relationship to comment model. If blank, comment has no parent and is not considered a reply to another comment" style="shape=partialRectangle;html=1;whiteSpace=wrap;connectable=0;strokeColor=inherit;overflow=hidden;fillColor=none;top=0;left=0;bottom=0;right=0;pointerEvents=1;fontSize=16;" parent="w2JHaz7uP7hH5NqDD6UE-146" vertex="1">
          <mxGeometry x="387" width="1109" height="44" as="geometry">
            <mxRectangle width="1109" height="44" as="alternateBounds" />
          </mxGeometry>
        </mxCell>
        <mxCell id="oC64nerQ9CRqtGgoc1SY-27" value="" style="edgeStyle=entityRelationEdgeStyle;fontSize=12;html=1;endArrow=ERmany;rounded=0;" parent="w2JHaz7uP7hH5NqDD6UE-33" source="w2JHaz7uP7hH5NqDD6UE-39" target="w2JHaz7uP7hH5NqDD6UE-146" edge="1">
          <mxGeometry width="100" height="100" relative="1" as="geometry">
            <mxPoint x="1970" y="350" as="sourcePoint" />
            <mxPoint x="1693" y="290" as="targetPoint" />
          </mxGeometry>
        </mxCell>
        <mxCell id="w2JHaz7uP7hH5NqDD6UE-49" value="Review" style="shape=table;startSize=30;container=1;collapsible=0;childLayout=tableLayout;strokeColor=#d6b656;fontSize=16;fillColor=#fff2cc;" parent="1" vertex="1">
          <mxGeometry x="-413" y="750" width="1317" height="280" as="geometry" />
        </mxCell>
        <mxCell id="w2JHaz7uP7hH5NqDD6UE-50" value="" style="shape=tableRow;horizontal=0;startSize=0;swimlaneHead=0;swimlaneBody=0;strokeColor=inherit;top=0;left=0;bottom=0;right=0;collapsible=0;dropTarget=0;fillColor=none;points=[[0,0.5],[1,0.5]];portConstraint=eastwest;fontSize=16;" parent="w2JHaz7uP7hH5NqDD6UE-49" vertex="1">
          <mxGeometry y="30" width="1317" height="42" as="geometry" />
        </mxCell>
        <mxCell id="w2JHaz7uP7hH5NqDD6UE-51" value="Key" style="shape=partialRectangle;html=1;whiteSpace=wrap;connectable=0;strokeColor=inherit;overflow=hidden;fillColor=none;top=0;left=0;bottom=0;right=0;pointerEvents=1;fontSize=16;" parent="w2JHaz7uP7hH5NqDD6UE-50" vertex="1">
          <mxGeometry width="129" height="42" as="geometry">
            <mxRectangle width="129" height="42" as="alternateBounds" />
          </mxGeometry>
        </mxCell>
        <mxCell id="w2JHaz7uP7hH5NqDD6UE-52" value="Name" style="shape=partialRectangle;html=1;whiteSpace=wrap;connectable=0;strokeColor=inherit;overflow=hidden;fillColor=none;top=0;left=0;bottom=0;right=0;pointerEvents=1;fontSize=16;" parent="w2JHaz7uP7hH5NqDD6UE-50" vertex="1">
          <mxGeometry x="129" width="215" height="42" as="geometry">
            <mxRectangle width="215" height="42" as="alternateBounds" />
          </mxGeometry>
        </mxCell>
        <mxCell id="w2JHaz7uP7hH5NqDD6UE-53" value="Type" style="shape=partialRectangle;html=1;whiteSpace=wrap;connectable=0;strokeColor=inherit;overflow=hidden;fillColor=none;top=0;left=0;bottom=0;right=0;pointerEvents=1;fontSize=16;" parent="w2JHaz7uP7hH5NqDD6UE-50" vertex="1">
          <mxGeometry x="344" width="199" height="42" as="geometry">
            <mxRectangle width="199" height="42" as="alternateBounds" />
          </mxGeometry>
        </mxCell>
        <mxCell id="w2JHaz7uP7hH5NqDD6UE-54" value="Additional Info" style="shape=partialRectangle;html=1;whiteSpace=wrap;connectable=0;strokeColor=inherit;overflow=hidden;fillColor=none;top=0;left=0;bottom=0;right=0;pointerEvents=1;fontSize=16;" parent="w2JHaz7uP7hH5NqDD6UE-50" vertex="1">
          <mxGeometry x="543" width="774" height="42" as="geometry">
            <mxRectangle width="774" height="42" as="alternateBounds" />
          </mxGeometry>
        </mxCell>
        <mxCell id="w2JHaz7uP7hH5NqDD6UE-55" value="" style="shape=tableRow;horizontal=0;startSize=0;swimlaneHead=0;swimlaneBody=0;strokeColor=inherit;top=0;left=0;bottom=0;right=0;collapsible=0;dropTarget=0;fillColor=none;points=[[0,0.5],[1,0.5]];portConstraint=eastwest;fontSize=16;" parent="w2JHaz7uP7hH5NqDD6UE-49" vertex="1">
          <mxGeometry y="72" width="1317" height="41" as="geometry" />
        </mxCell>
        <mxCell id="w2JHaz7uP7hH5NqDD6UE-56" value="PK" style="shape=partialRectangle;html=1;whiteSpace=wrap;connectable=0;strokeColor=inherit;overflow=hidden;fillColor=none;top=0;left=0;bottom=0;right=0;pointerEvents=1;fontSize=16;" parent="w2JHaz7uP7hH5NqDD6UE-55" vertex="1">
          <mxGeometry width="129" height="41" as="geometry">
            <mxRectangle width="129" height="41" as="alternateBounds" />
          </mxGeometry>
        </mxCell>
        <mxCell id="w2JHaz7uP7hH5NqDD6UE-57" value="review_id" style="shape=partialRectangle;html=1;whiteSpace=wrap;connectable=0;strokeColor=inherit;overflow=hidden;fillColor=none;top=0;left=0;bottom=0;right=0;pointerEvents=1;fontSize=16;" parent="w2JHaz7uP7hH5NqDD6UE-55" vertex="1">
          <mxGeometry x="129" width="215" height="41" as="geometry">
            <mxRectangle width="215" height="41" as="alternateBounds" />
          </mxGeometry>
        </mxCell>
        <mxCell id="w2JHaz7uP7hH5NqDD6UE-58" value="PositiveInteger" style="shape=partialRectangle;html=1;whiteSpace=wrap;connectable=0;strokeColor=inherit;overflow=hidden;fillColor=none;top=0;left=0;bottom=0;right=0;pointerEvents=1;fontSize=16;" parent="w2JHaz7uP7hH5NqDD6UE-55" vertex="1">
          <mxGeometry x="344" width="199" height="41" as="geometry">
            <mxRectangle width="199" height="41" as="alternateBounds" />
          </mxGeometry>
        </mxCell>
        <mxCell id="w2JHaz7uP7hH5NqDD6UE-59" style="shape=partialRectangle;html=1;whiteSpace=wrap;connectable=0;strokeColor=inherit;overflow=hidden;fillColor=none;top=0;left=0;bottom=0;right=0;pointerEvents=1;fontSize=16;" parent="w2JHaz7uP7hH5NqDD6UE-55" vertex="1">
          <mxGeometry x="543" width="774" height="41" as="geometry">
            <mxRectangle width="774" height="41" as="alternateBounds" />
          </mxGeometry>
        </mxCell>
        <mxCell id="w2JHaz7uP7hH5NqDD6UE-60" value="" style="shape=tableRow;horizontal=0;startSize=0;swimlaneHead=0;swimlaneBody=0;strokeColor=inherit;top=0;left=0;bottom=0;right=0;collapsible=0;dropTarget=0;fillColor=none;points=[[0,0.5],[1,0.5]];portConstraint=eastwest;fontSize=16;" parent="w2JHaz7uP7hH5NqDD6UE-49" vertex="1">
          <mxGeometry y="113" width="1317" height="42" as="geometry" />
        </mxCell>
        <mxCell id="w2JHaz7uP7hH5NqDD6UE-61" value="FK" style="shape=partialRectangle;html=1;whiteSpace=wrap;connectable=0;strokeColor=inherit;overflow=hidden;fillColor=none;top=0;left=0;bottom=0;right=0;pointerEvents=1;fontSize=16;" parent="w2JHaz7uP7hH5NqDD6UE-60" vertex="1">
          <mxGeometry width="129" height="42" as="geometry">
            <mxRectangle width="129" height="42" as="alternateBounds" />
          </mxGeometry>
        </mxCell>
        <mxCell id="w2JHaz7uP7hH5NqDD6UE-62" value="event" style="shape=partialRectangle;html=1;whiteSpace=wrap;connectable=0;strokeColor=inherit;overflow=hidden;fillColor=none;top=0;left=0;bottom=0;right=0;pointerEvents=1;fontSize=16;" parent="w2JHaz7uP7hH5NqDD6UE-60" vertex="1">
          <mxGeometry x="129" width="215" height="42" as="geometry">
            <mxRectangle width="215" height="42" as="alternateBounds" />
          </mxGeometry>
        </mxCell>
        <mxCell id="w2JHaz7uP7hH5NqDD6UE-63" value="Event Model" style="shape=partialRectangle;html=1;whiteSpace=wrap;connectable=0;strokeColor=inherit;overflow=hidden;fillColor=none;top=0;left=0;bottom=0;right=0;pointerEvents=1;fontSize=16;" parent="w2JHaz7uP7hH5NqDD6UE-60" vertex="1">
          <mxGeometry x="344" width="199" height="42" as="geometry">
            <mxRectangle width="199" height="42" as="alternateBounds" />
          </mxGeometry>
        </mxCell>
        <mxCell id="w2JHaz7uP7hH5NqDD6UE-64" value="many-to-one relationship to Event Model" style="shape=partialRectangle;html=1;whiteSpace=wrap;connectable=0;strokeColor=inherit;overflow=hidden;fillColor=none;top=0;left=0;bottom=0;right=0;pointerEvents=1;fontSize=16;" parent="w2JHaz7uP7hH5NqDD6UE-60" vertex="1">
          <mxGeometry x="543" width="774" height="42" as="geometry">
            <mxRectangle width="774" height="42" as="alternateBounds" />
          </mxGeometry>
        </mxCell>
        <mxCell id="w2JHaz7uP7hH5NqDD6UE-151" style="shape=tableRow;horizontal=0;startSize=0;swimlaneHead=0;swimlaneBody=0;strokeColor=inherit;top=0;left=0;bottom=0;right=0;collapsible=0;dropTarget=0;fillColor=none;points=[[0,0.5],[1,0.5]];portConstraint=eastwest;fontSize=16;" parent="w2JHaz7uP7hH5NqDD6UE-49" vertex="1">
          <mxGeometry y="155" width="1317" height="42" as="geometry" />
        </mxCell>
        <mxCell id="w2JHaz7uP7hH5NqDD6UE-152" style="shape=partialRectangle;html=1;whiteSpace=wrap;connectable=0;strokeColor=inherit;overflow=hidden;fillColor=none;top=0;left=0;bottom=0;right=0;pointerEvents=1;fontSize=16;" parent="w2JHaz7uP7hH5NqDD6UE-151" vertex="1">
          <mxGeometry width="129" height="42" as="geometry">
            <mxRectangle width="129" height="42" as="alternateBounds" />
          </mxGeometry>
        </mxCell>
        <mxCell id="w2JHaz7uP7hH5NqDD6UE-153" value="rating" style="shape=partialRectangle;html=1;whiteSpace=wrap;connectable=0;strokeColor=inherit;overflow=hidden;fillColor=none;top=0;left=0;bottom=0;right=0;pointerEvents=1;fontSize=16;" parent="w2JHaz7uP7hH5NqDD6UE-151" vertex="1">
          <mxGeometry x="129" width="215" height="42" as="geometry">
            <mxRectangle width="215" height="42" as="alternateBounds" />
          </mxGeometry>
        </mxCell>
        <mxCell id="w2JHaz7uP7hH5NqDD6UE-154" value="PositiveSmallIntegerField" style="shape=partialRectangle;html=1;whiteSpace=wrap;connectable=0;strokeColor=inherit;overflow=hidden;fillColor=none;top=0;left=0;bottom=0;right=0;pointerEvents=1;fontSize=16;" parent="w2JHaz7uP7hH5NqDD6UE-151" vertex="1">
          <mxGeometry x="344" width="199" height="42" as="geometry">
            <mxRectangle width="199" height="42" as="alternateBounds" />
          </mxGeometry>
        </mxCell>
        <mxCell id="w2JHaz7uP7hH5NqDD6UE-155" value="choices option used in this field (choices are 1,2,3,4,5) reflecting number of stars the user rates the event, default choice is 5 stars" style="shape=partialRectangle;html=1;whiteSpace=wrap;connectable=0;strokeColor=inherit;overflow=hidden;fillColor=none;top=0;left=0;bottom=0;right=0;pointerEvents=1;fontSize=16;" parent="w2JHaz7uP7hH5NqDD6UE-151" vertex="1">
          <mxGeometry x="543" width="774" height="42" as="geometry">
            <mxRectangle width="774" height="42" as="alternateBounds" />
          </mxGeometry>
        </mxCell>
        <mxCell id="w2JHaz7uP7hH5NqDD6UE-156" style="shape=tableRow;horizontal=0;startSize=0;swimlaneHead=0;swimlaneBody=0;strokeColor=inherit;top=0;left=0;bottom=0;right=0;collapsible=0;dropTarget=0;fillColor=none;points=[[0,0.5],[1,0.5]];portConstraint=eastwest;fontSize=16;" parent="w2JHaz7uP7hH5NqDD6UE-49" vertex="1">
          <mxGeometry y="197" width="1317" height="41" as="geometry" />
        </mxCell>
        <mxCell id="w2JHaz7uP7hH5NqDD6UE-157" style="shape=partialRectangle;html=1;whiteSpace=wrap;connectable=0;strokeColor=inherit;overflow=hidden;fillColor=none;top=0;left=0;bottom=0;right=0;pointerEvents=1;fontSize=16;" parent="w2JHaz7uP7hH5NqDD6UE-156" vertex="1">
          <mxGeometry width="129" height="41" as="geometry">
            <mxRectangle width="129" height="41" as="alternateBounds" />
          </mxGeometry>
        </mxCell>
        <mxCell id="w2JHaz7uP7hH5NqDD6UE-158" value="author" style="shape=partialRectangle;html=1;whiteSpace=wrap;connectable=0;strokeColor=inherit;overflow=hidden;fillColor=none;top=0;left=0;bottom=0;right=0;pointerEvents=1;fontSize=16;" parent="w2JHaz7uP7hH5NqDD6UE-156" vertex="1">
          <mxGeometry x="129" width="215" height="41" as="geometry">
            <mxRectangle width="215" height="41" as="alternateBounds" />
          </mxGeometry>
        </mxCell>
        <mxCell id="w2JHaz7uP7hH5NqDD6UE-159" value="User Model" style="shape=partialRectangle;html=1;whiteSpace=wrap;connectable=0;strokeColor=inherit;overflow=hidden;fillColor=none;top=0;left=0;bottom=0;right=0;pointerEvents=1;fontSize=16;" parent="w2JHaz7uP7hH5NqDD6UE-156" vertex="1">
          <mxGeometry x="344" width="199" height="41" as="geometry">
            <mxRectangle width="199" height="41" as="alternateBounds" />
          </mxGeometry>
        </mxCell>
        <mxCell id="w2JHaz7uP7hH5NqDD6UE-160" value="many-to-one relationship to User Model" style="shape=partialRectangle;html=1;whiteSpace=wrap;connectable=0;strokeColor=inherit;overflow=hidden;fillColor=none;top=0;left=0;bottom=0;right=0;pointerEvents=1;fontSize=16;" parent="w2JHaz7uP7hH5NqDD6UE-156" vertex="1">
          <mxGeometry x="543" width="774" height="41" as="geometry">
            <mxRectangle width="774" height="41" as="alternateBounds" />
          </mxGeometry>
        </mxCell>
        <mxCell id="w2JHaz7uP7hH5NqDD6UE-161" style="shape=tableRow;horizontal=0;startSize=0;swimlaneHead=0;swimlaneBody=0;strokeColor=inherit;top=0;left=0;bottom=0;right=0;collapsible=0;dropTarget=0;fillColor=none;points=[[0,0.5],[1,0.5]];portConstraint=eastwest;fontSize=16;" parent="w2JHaz7uP7hH5NqDD6UE-49" vertex="1">
          <mxGeometry y="238" width="1317" height="42" as="geometry" />
        </mxCell>
        <mxCell id="w2JHaz7uP7hH5NqDD6UE-162" style="shape=partialRectangle;html=1;whiteSpace=wrap;connectable=0;strokeColor=inherit;overflow=hidden;fillColor=none;top=0;left=0;bottom=0;right=0;pointerEvents=1;fontSize=16;" parent="w2JHaz7uP7hH5NqDD6UE-161" vertex="1">
          <mxGeometry width="129" height="42" as="geometry">
            <mxRectangle width="129" height="42" as="alternateBounds" />
          </mxGeometry>
        </mxCell>
        <mxCell id="w2JHaz7uP7hH5NqDD6UE-163" value="content" style="shape=partialRectangle;html=1;whiteSpace=wrap;connectable=0;strokeColor=inherit;overflow=hidden;fillColor=none;top=0;left=0;bottom=0;right=0;pointerEvents=1;fontSize=16;" parent="w2JHaz7uP7hH5NqDD6UE-161" vertex="1">
          <mxGeometry x="129" width="215" height="42" as="geometry">
            <mxRectangle width="215" height="42" as="alternateBounds" />
          </mxGeometry>
        </mxCell>
        <mxCell id="w2JHaz7uP7hH5NqDD6UE-164" value="TextField" style="shape=partialRectangle;html=1;whiteSpace=wrap;connectable=0;strokeColor=inherit;overflow=hidden;fillColor=none;top=0;left=0;bottom=0;right=0;pointerEvents=1;fontSize=16;" parent="w2JHaz7uP7hH5NqDD6UE-161" vertex="1">
          <mxGeometry x="344" width="199" height="42" as="geometry">
            <mxRectangle width="199" height="42" as="alternateBounds" />
          </mxGeometry>
        </mxCell>
        <mxCell id="w2JHaz7uP7hH5NqDD6UE-165" value="max_length = 300 |&amp;nbsp;" style="shape=partialRectangle;html=1;whiteSpace=wrap;connectable=0;strokeColor=inherit;overflow=hidden;fillColor=none;top=0;left=0;bottom=0;right=0;pointerEvents=1;fontSize=16;" parent="w2JHaz7uP7hH5NqDD6UE-161" vertex="1">
          <mxGeometry x="543" width="774" height="42" as="geometry">
            <mxRectangle width="774" height="42" as="alternateBounds" />
          </mxGeometry>
        </mxCell>
        <mxCell id="Jhk2qc18iemRGYJZ5KQD-1" value="Booking" style="shape=table;startSize=30;container=1;collapsible=0;childLayout=tableLayout;strokeColor=#6c8ebf;fontSize=16;fillColor=#dae8fc;" parent="1" vertex="1">
          <mxGeometry x="1130" width="890" height="250" as="geometry" />
        </mxCell>
        <mxCell id="Jhk2qc18iemRGYJZ5KQD-2" value="" style="shape=tableRow;horizontal=0;startSize=0;swimlaneHead=0;swimlaneBody=0;strokeColor=inherit;top=0;left=0;bottom=0;right=0;collapsible=0;dropTarget=0;fillColor=none;points=[[0,0.5],[1,0.5]];portConstraint=eastwest;fontSize=16;" parent="Jhk2qc18iemRGYJZ5KQD-1" vertex="1">
          <mxGeometry y="30" width="890" height="47" as="geometry" />
        </mxCell>
        <mxCell id="Jhk2qc18iemRGYJZ5KQD-3" value="Key" style="shape=partialRectangle;html=1;whiteSpace=wrap;connectable=0;strokeColor=inherit;overflow=hidden;fillColor=none;top=0;left=0;bottom=0;right=0;pointerEvents=1;fontSize=16;" parent="Jhk2qc18iemRGYJZ5KQD-2" vertex="1">
          <mxGeometry width="52" height="47" as="geometry">
            <mxRectangle width="52" height="47" as="alternateBounds" />
          </mxGeometry>
        </mxCell>
        <mxCell id="Jhk2qc18iemRGYJZ5KQD-4" value="Name" style="shape=partialRectangle;html=1;whiteSpace=wrap;connectable=0;strokeColor=inherit;overflow=hidden;fillColor=none;top=0;left=0;bottom=0;right=0;pointerEvents=1;fontSize=16;" parent="Jhk2qc18iemRGYJZ5KQD-2" vertex="1">
          <mxGeometry x="52" width="95" height="47" as="geometry">
            <mxRectangle width="95" height="47" as="alternateBounds" />
          </mxGeometry>
        </mxCell>
        <mxCell id="Jhk2qc18iemRGYJZ5KQD-5" value="Type" style="shape=partialRectangle;html=1;whiteSpace=wrap;connectable=0;strokeColor=inherit;overflow=hidden;fillColor=none;top=0;left=0;bottom=0;right=0;pointerEvents=1;fontSize=16;" parent="Jhk2qc18iemRGYJZ5KQD-2" vertex="1">
          <mxGeometry x="147" width="163" height="47" as="geometry">
            <mxRectangle width="163" height="47" as="alternateBounds" />
          </mxGeometry>
        </mxCell>
        <mxCell id="Jhk2qc18iemRGYJZ5KQD-6" value="Additional Info" style="shape=partialRectangle;html=1;whiteSpace=wrap;connectable=0;strokeColor=inherit;overflow=hidden;fillColor=none;top=0;left=0;bottom=0;right=0;pointerEvents=1;fontSize=16;" parent="Jhk2qc18iemRGYJZ5KQD-2" vertex="1">
          <mxGeometry x="310" width="580" height="47" as="geometry">
            <mxRectangle width="580" height="47" as="alternateBounds" />
          </mxGeometry>
        </mxCell>
        <mxCell id="Jhk2qc18iemRGYJZ5KQD-7" value="" style="shape=tableRow;horizontal=0;startSize=0;swimlaneHead=0;swimlaneBody=0;strokeColor=inherit;top=0;left=0;bottom=0;right=0;collapsible=0;dropTarget=0;fillColor=none;points=[[0,0.5],[1,0.5]];portConstraint=eastwest;fontSize=16;" parent="Jhk2qc18iemRGYJZ5KQD-1" vertex="1">
          <mxGeometry y="77" width="890" height="47" as="geometry" />
        </mxCell>
        <mxCell id="Jhk2qc18iemRGYJZ5KQD-8" value="PK" style="shape=partialRectangle;html=1;whiteSpace=wrap;connectable=0;strokeColor=inherit;overflow=hidden;fillColor=none;top=0;left=0;bottom=0;right=0;pointerEvents=1;fontSize=16;" parent="Jhk2qc18iemRGYJZ5KQD-7" vertex="1">
          <mxGeometry width="52" height="47" as="geometry">
            <mxRectangle width="52" height="47" as="alternateBounds" />
          </mxGeometry>
        </mxCell>
        <mxCell id="Jhk2qc18iemRGYJZ5KQD-9" value="booking_id" style="shape=partialRectangle;html=1;whiteSpace=wrap;connectable=0;strokeColor=inherit;overflow=hidden;fillColor=none;top=0;left=0;bottom=0;right=0;pointerEvents=1;fontSize=16;" parent="Jhk2qc18iemRGYJZ5KQD-7" vertex="1">
          <mxGeometry x="52" width="95" height="47" as="geometry">
            <mxRectangle width="95" height="47" as="alternateBounds" />
          </mxGeometry>
        </mxCell>
        <mxCell id="Jhk2qc18iemRGYJZ5KQD-10" value="PositiveIntegerField" style="shape=partialRectangle;html=1;whiteSpace=wrap;connectable=0;strokeColor=inherit;overflow=hidden;fillColor=none;top=0;left=0;bottom=0;right=0;pointerEvents=1;fontSize=16;" parent="Jhk2qc18iemRGYJZ5KQD-7" vertex="1">
          <mxGeometry x="147" width="163" height="47" as="geometry">
            <mxRectangle width="163" height="47" as="alternateBounds" />
          </mxGeometry>
        </mxCell>
        <mxCell id="Jhk2qc18iemRGYJZ5KQD-11" style="shape=partialRectangle;html=1;whiteSpace=wrap;connectable=0;strokeColor=inherit;overflow=hidden;fillColor=none;top=0;left=0;bottom=0;right=0;pointerEvents=1;fontSize=16;" parent="Jhk2qc18iemRGYJZ5KQD-7" vertex="1">
          <mxGeometry x="310" width="580" height="47" as="geometry">
            <mxRectangle width="580" height="47" as="alternateBounds" />
          </mxGeometry>
        </mxCell>
        <mxCell id="Jhk2qc18iemRGYJZ5KQD-12" value="" style="shape=tableRow;horizontal=0;startSize=0;swimlaneHead=0;swimlaneBody=0;strokeColor=inherit;top=0;left=0;bottom=0;right=0;collapsible=0;dropTarget=0;fillColor=none;points=[[0,0.5],[1,0.5]];portConstraint=eastwest;fontSize=16;" parent="Jhk2qc18iemRGYJZ5KQD-1" vertex="1">
          <mxGeometry y="124" width="890" height="42" as="geometry" />
        </mxCell>
        <mxCell id="Jhk2qc18iemRGYJZ5KQD-13" value="FK" style="shape=partialRectangle;html=1;whiteSpace=wrap;connectable=0;strokeColor=inherit;overflow=hidden;fillColor=none;top=0;left=0;bottom=0;right=0;pointerEvents=1;fontSize=16;" parent="Jhk2qc18iemRGYJZ5KQD-12" vertex="1">
          <mxGeometry width="52" height="42" as="geometry">
            <mxRectangle width="52" height="42" as="alternateBounds" />
          </mxGeometry>
        </mxCell>
        <mxCell id="Jhk2qc18iemRGYJZ5KQD-14" value="event" style="shape=partialRectangle;html=1;whiteSpace=wrap;connectable=0;strokeColor=inherit;overflow=hidden;fillColor=none;top=0;left=0;bottom=0;right=0;pointerEvents=1;fontSize=16;" parent="Jhk2qc18iemRGYJZ5KQD-12" vertex="1">
          <mxGeometry x="52" width="95" height="42" as="geometry">
            <mxRectangle width="95" height="42" as="alternateBounds" />
          </mxGeometry>
        </mxCell>
        <mxCell id="Jhk2qc18iemRGYJZ5KQD-15" value="PositiveIntegerField" style="shape=partialRectangle;html=1;whiteSpace=wrap;connectable=0;strokeColor=inherit;overflow=hidden;fillColor=none;top=0;left=0;bottom=0;right=0;pointerEvents=1;fontSize=16;" parent="Jhk2qc18iemRGYJZ5KQD-12" vertex="1">
          <mxGeometry x="147" width="163" height="42" as="geometry">
            <mxRectangle width="163" height="42" as="alternateBounds" />
          </mxGeometry>
        </mxCell>
        <mxCell id="Jhk2qc18iemRGYJZ5KQD-16" value="many-to-one relationship with Event Model" style="shape=partialRectangle;html=1;whiteSpace=wrap;connectable=0;strokeColor=inherit;overflow=hidden;fillColor=none;top=0;left=0;bottom=0;right=0;pointerEvents=1;fontSize=16;" parent="Jhk2qc18iemRGYJZ5KQD-12" vertex="1">
          <mxGeometry x="310" width="580" height="42" as="geometry">
            <mxRectangle width="580" height="42" as="alternateBounds" />
          </mxGeometry>
        </mxCell>
        <mxCell id="Jhk2qc18iemRGYJZ5KQD-17" style="shape=tableRow;horizontal=0;startSize=0;swimlaneHead=0;swimlaneBody=0;strokeColor=inherit;top=0;left=0;bottom=0;right=0;collapsible=0;dropTarget=0;fillColor=none;points=[[0,0.5],[1,0.5]];portConstraint=eastwest;fontSize=16;" parent="Jhk2qc18iemRGYJZ5KQD-1" vertex="1">
          <mxGeometry y="166" width="890" height="42" as="geometry" />
        </mxCell>
        <mxCell id="Jhk2qc18iemRGYJZ5KQD-18" value="FK" style="shape=partialRectangle;html=1;whiteSpace=wrap;connectable=0;strokeColor=inherit;overflow=hidden;fillColor=none;top=0;left=0;bottom=0;right=0;pointerEvents=1;fontSize=16;" parent="Jhk2qc18iemRGYJZ5KQD-17" vertex="1">
          <mxGeometry width="52" height="42" as="geometry">
            <mxRectangle width="52" height="42" as="alternateBounds" />
          </mxGeometry>
        </mxCell>
        <mxCell id="Jhk2qc18iemRGYJZ5KQD-19" value="ticketholder" style="shape=partialRectangle;html=1;whiteSpace=wrap;connectable=0;strokeColor=inherit;overflow=hidden;fillColor=none;top=0;left=0;bottom=0;right=0;pointerEvents=1;fontSize=16;" parent="Jhk2qc18iemRGYJZ5KQD-17" vertex="1">
          <mxGeometry x="52" width="95" height="42" as="geometry">
            <mxRectangle width="95" height="42" as="alternateBounds" />
          </mxGeometry>
        </mxCell>
        <mxCell id="Jhk2qc18iemRGYJZ5KQD-20" value="PositiveInteger" style="shape=partialRectangle;html=1;whiteSpace=wrap;connectable=0;strokeColor=inherit;overflow=hidden;fillColor=none;top=0;left=0;bottom=0;right=0;pointerEvents=1;fontSize=16;" parent="Jhk2qc18iemRGYJZ5KQD-17" vertex="1">
          <mxGeometry x="147" width="163" height="42" as="geometry">
            <mxRectangle width="163" height="42" as="alternateBounds" />
          </mxGeometry>
        </mxCell>
        <mxCell id="Jhk2qc18iemRGYJZ5KQD-21" value="many-to-one relationship with User Model" style="shape=partialRectangle;html=1;whiteSpace=wrap;connectable=0;strokeColor=inherit;overflow=hidden;fillColor=none;top=0;left=0;bottom=0;right=0;pointerEvents=1;fontSize=16;" parent="Jhk2qc18iemRGYJZ5KQD-17" vertex="1">
          <mxGeometry x="310" width="580" height="42" as="geometry">
            <mxRectangle width="580" height="42" as="alternateBounds" />
          </mxGeometry>
        </mxCell>
        <mxCell id="oC64nerQ9CRqtGgoc1SY-35" style="shape=tableRow;horizontal=0;startSize=0;swimlaneHead=0;swimlaneBody=0;strokeColor=inherit;top=0;left=0;bottom=0;right=0;collapsible=0;dropTarget=0;fillColor=none;points=[[0,0.5],[1,0.5]];portConstraint=eastwest;fontSize=16;" parent="Jhk2qc18iemRGYJZ5KQD-1" vertex="1">
          <mxGeometry y="208" width="890" height="42" as="geometry" />
        </mxCell>
        <mxCell id="oC64nerQ9CRqtGgoc1SY-36" style="shape=partialRectangle;html=1;whiteSpace=wrap;connectable=0;strokeColor=inherit;overflow=hidden;fillColor=none;top=0;left=0;bottom=0;right=0;pointerEvents=1;fontSize=16;" parent="oC64nerQ9CRqtGgoc1SY-35" vertex="1">
          <mxGeometry width="52" height="42" as="geometry">
            <mxRectangle width="52" height="42" as="alternateBounds" />
          </mxGeometry>
        </mxCell>
        <mxCell id="oC64nerQ9CRqtGgoc1SY-37" value="tickets" style="shape=partialRectangle;html=1;whiteSpace=wrap;connectable=0;strokeColor=inherit;overflow=hidden;fillColor=none;top=0;left=0;bottom=0;right=0;pointerEvents=1;fontSize=16;" parent="oC64nerQ9CRqtGgoc1SY-35" vertex="1">
          <mxGeometry x="52" width="95" height="42" as="geometry">
            <mxRectangle width="95" height="42" as="alternateBounds" />
          </mxGeometry>
        </mxCell>
        <mxCell id="oC64nerQ9CRqtGgoc1SY-38" value="PositiveSmallInteger" style="shape=partialRectangle;html=1;whiteSpace=wrap;connectable=0;strokeColor=inherit;overflow=hidden;fillColor=none;top=0;left=0;bottom=0;right=0;pointerEvents=1;fontSize=16;" parent="oC64nerQ9CRqtGgoc1SY-35" vertex="1">
          <mxGeometry x="147" width="163" height="42" as="geometry">
            <mxRectangle width="163" height="42" as="alternateBounds" />
          </mxGeometry>
        </mxCell>
        <mxCell id="oC64nerQ9CRqtGgoc1SY-39" value="choices = (1, 2, 3, 4) | only allow 4 tickets per ticketholder max for fairness" style="shape=partialRectangle;html=1;whiteSpace=wrap;connectable=0;strokeColor=inherit;overflow=hidden;fillColor=none;top=0;left=0;bottom=0;right=0;pointerEvents=1;fontSize=16;" parent="oC64nerQ9CRqtGgoc1SY-35" vertex="1">
          <mxGeometry x="310" width="580" height="42" as="geometry">
            <mxRectangle width="580" height="42" as="alternateBounds" />
          </mxGeometry>
        </mxCell>
        <mxCell id="oC64nerQ9CRqtGgoc1SY-7" value="" style="edgeStyle=entityRelationEdgeStyle;fontSize=12;html=1;endArrow=ERmany;rounded=0;entryX=1;entryY=0.5;entryDx=0;entryDy=0;exitX=0;exitY=0.5;exitDx=0;exitDy=0;" parent="1" source="w2JHaz7uP7hH5NqDD6UE-6" target="w2JHaz7uP7hH5NqDD6UE-121" edge="1">
          <mxGeometry width="100" height="100" relative="1" as="geometry">
            <mxPoint x="990" y="570" as="sourcePoint" />
            <mxPoint x="1090" y="470" as="targetPoint" />
          </mxGeometry>
        </mxCell>
        <mxCell id="oC64nerQ9CRqtGgoc1SY-24" value="" style="edgeStyle=entityRelationEdgeStyle;fontSize=12;html=1;endArrow=ERmany;startArrow=ERmany;rounded=0;exitX=1;exitY=0.5;exitDx=0;exitDy=0;" parent="1" source="w2JHaz7uP7hH5NqDD6UE-44" target="w2JHaz7uP7hH5NqDD6UE-23" edge="1">
          <mxGeometry width="100" height="100" relative="1" as="geometry">
            <mxPoint x="1010" y="710" as="sourcePoint" />
            <mxPoint x="1000" y="-40" as="targetPoint" />
          </mxGeometry>
        </mxCell>
        <mxCell id="oC64nerQ9CRqtGgoc1SY-26" value="" style="edgeStyle=entityRelationEdgeStyle;fontSize=12;html=1;endArrow=ERmany;rounded=0;entryX=1;entryY=0.5;entryDx=0;entryDy=0;exitX=0;exitY=0.5;exitDx=0;exitDy=0;" parent="1" source="w2JHaz7uP7hH5NqDD6UE-6" target="w2JHaz7uP7hH5NqDD6UE-131" edge="1">
          <mxGeometry width="100" height="100" relative="1" as="geometry">
            <mxPoint x="1070" y="740" as="sourcePoint" />
            <mxPoint x="1060" y="730" as="targetPoint" />
          </mxGeometry>
        </mxCell>
        <mxCell id="oC64nerQ9CRqtGgoc1SY-28" value="" style="edgeStyle=entityRelationEdgeStyle;fontSize=12;html=1;endArrow=ERmany;rounded=0;exitX=1;exitY=0.5;exitDx=0;exitDy=0;" parent="1" source="w2JHaz7uP7hH5NqDD6UE-23" target="w2JHaz7uP7hH5NqDD6UE-60" edge="1">
          <mxGeometry width="100" height="100" relative="1" as="geometry">
            <mxPoint x="1080" y="690" as="sourcePoint" />
            <mxPoint x="1080" y="833" as="targetPoint" />
          </mxGeometry>
        </mxCell>
        <mxCell id="oC64nerQ9CRqtGgoc1SY-29" value="" style="edgeStyle=entityRelationEdgeStyle;fontSize=12;html=1;endArrow=ERmany;rounded=0;exitX=0;exitY=0.5;exitDx=0;exitDy=0;" parent="1" source="w2JHaz7uP7hH5NqDD6UE-6" target="w2JHaz7uP7hH5NqDD6UE-156" edge="1">
          <mxGeometry width="100" height="100" relative="1" as="geometry">
            <mxPoint x="1200" as="sourcePoint" />
            <mxPoint x="1200" y="965" as="targetPoint" />
          </mxGeometry>
        </mxCell>
        <mxCell id="oC64nerQ9CRqtGgoc1SY-40" value="" style="edgeStyle=entityRelationEdgeStyle;fontSize=12;html=1;endArrow=ERmany;rounded=0;entryX=1;entryY=0.5;entryDx=0;entryDy=0;exitX=0;exitY=0.5;exitDx=0;exitDy=0;" parent="1" source="Jhk2qc18iemRGYJZ5KQD-12" target="oC64nerQ9CRqtGgoc1SY-16" edge="1">
          <mxGeometry width="100" height="100" relative="1" as="geometry">
            <mxPoint x="1020" y="70" as="sourcePoint" />
            <mxPoint x="1050" y="140" as="targetPoint" />
          </mxGeometry>
        </mxCell>
        <mxCell id="oC64nerQ9CRqtGgoc1SY-41" value="" style="edgeStyle=entityRelationEdgeStyle;fontSize=12;html=1;endArrow=ERmany;rounded=0;entryX=1;entryY=0.5;entryDx=0;entryDy=0;" parent="1" source="w2JHaz7uP7hH5NqDD6UE-6" target="Jhk2qc18iemRGYJZ5KQD-17" edge="1">
          <mxGeometry width="100" height="100" relative="1" as="geometry">
            <mxPoint x="2276" y="250" as="sourcePoint" />
            <mxPoint x="2050" y="278" as="targetPoint" />
          </mxGeometry>
        </mxCell>
        <mxCell id="6b7R6LfnYin_zFRkQCWN-1" value="Message" style="shape=table;startSize=30;container=1;collapsible=0;childLayout=tableLayout;strokeColor=#2D7600;fontSize=16;fillColor=#60a917;fontColor=#ffffff;" vertex="1" parent="1">
          <mxGeometry x="1129" y="740" width="1496" height="264.5" as="geometry" />
        </mxCell>
        <mxCell id="6b7R6LfnYin_zFRkQCWN-2" value="" style="shape=tableRow;horizontal=0;startSize=0;swimlaneHead=0;swimlaneBody=0;strokeColor=inherit;top=0;left=0;bottom=0;right=0;collapsible=0;dropTarget=0;fillColor=none;points=[[0,0.5],[1,0.5]];portConstraint=eastwest;fontSize=16;" vertex="1" parent="6b7R6LfnYin_zFRkQCWN-1">
          <mxGeometry y="30" width="1496" height="29" as="geometry" />
        </mxCell>
        <mxCell id="6b7R6LfnYin_zFRkQCWN-3" value="Key" style="shape=partialRectangle;html=1;whiteSpace=wrap;connectable=0;strokeColor=inherit;overflow=hidden;fillColor=none;top=0;left=0;bottom=0;right=0;pointerEvents=1;fontSize=16;" vertex="1" parent="6b7R6LfnYin_zFRkQCWN-2">
          <mxGeometry width="87" height="29" as="geometry">
            <mxRectangle width="87" height="29" as="alternateBounds" />
          </mxGeometry>
        </mxCell>
        <mxCell id="6b7R6LfnYin_zFRkQCWN-4" value="Name" style="shape=partialRectangle;html=1;whiteSpace=wrap;connectable=0;strokeColor=inherit;overflow=hidden;fillColor=none;top=0;left=0;bottom=0;right=0;pointerEvents=1;fontSize=16;" vertex="1" parent="6b7R6LfnYin_zFRkQCWN-2">
          <mxGeometry x="87" width="137" height="29" as="geometry">
            <mxRectangle width="137" height="29" as="alternateBounds" />
          </mxGeometry>
        </mxCell>
        <mxCell id="6b7R6LfnYin_zFRkQCWN-5" value="Type" style="shape=partialRectangle;html=1;whiteSpace=wrap;connectable=0;strokeColor=inherit;overflow=hidden;fillColor=none;top=0;left=0;bottom=0;right=0;pointerEvents=1;fontSize=16;" vertex="1" parent="6b7R6LfnYin_zFRkQCWN-2">
          <mxGeometry x="224" width="163" height="29" as="geometry">
            <mxRectangle width="163" height="29" as="alternateBounds" />
          </mxGeometry>
        </mxCell>
        <mxCell id="6b7R6LfnYin_zFRkQCWN-6" value="Additional Info" style="shape=partialRectangle;html=1;whiteSpace=wrap;connectable=0;strokeColor=inherit;overflow=hidden;fillColor=none;top=0;left=0;bottom=0;right=0;pointerEvents=1;fontSize=16;" vertex="1" parent="6b7R6LfnYin_zFRkQCWN-2">
          <mxGeometry x="387" width="1109" height="29" as="geometry">
            <mxRectangle width="1109" height="29" as="alternateBounds" />
          </mxGeometry>
        </mxCell>
        <mxCell id="6b7R6LfnYin_zFRkQCWN-7" value="" style="shape=tableRow;horizontal=0;startSize=0;swimlaneHead=0;swimlaneBody=0;strokeColor=inherit;top=0;left=0;bottom=0;right=0;collapsible=0;dropTarget=0;fillColor=none;points=[[0,0.5],[1,0.5]];portConstraint=eastwest;fontSize=16;" vertex="1" parent="6b7R6LfnYin_zFRkQCWN-1">
          <mxGeometry y="59" width="1496" height="27" as="geometry" />
        </mxCell>
        <mxCell id="6b7R6LfnYin_zFRkQCWN-8" value="PK" style="shape=partialRectangle;html=1;whiteSpace=wrap;connectable=0;strokeColor=inherit;overflow=hidden;fillColor=none;top=0;left=0;bottom=0;right=0;pointerEvents=1;fontSize=16;" vertex="1" parent="6b7R6LfnYin_zFRkQCWN-7">
          <mxGeometry width="87" height="27" as="geometry">
            <mxRectangle width="87" height="27" as="alternateBounds" />
          </mxGeometry>
        </mxCell>
        <mxCell id="6b7R6LfnYin_zFRkQCWN-9" value="message_id" style="shape=partialRectangle;html=1;whiteSpace=wrap;connectable=0;strokeColor=inherit;overflow=hidden;fillColor=none;top=0;left=0;bottom=0;right=0;pointerEvents=1;fontSize=16;" vertex="1" parent="6b7R6LfnYin_zFRkQCWN-7">
          <mxGeometry x="87" width="137" height="27" as="geometry">
            <mxRectangle width="137" height="27" as="alternateBounds" />
          </mxGeometry>
        </mxCell>
        <mxCell id="6b7R6LfnYin_zFRkQCWN-10" value="PositiveInteger" style="shape=partialRectangle;html=1;whiteSpace=wrap;connectable=0;strokeColor=inherit;overflow=hidden;fillColor=none;top=0;left=0;bottom=0;right=0;pointerEvents=1;fontSize=16;" vertex="1" parent="6b7R6LfnYin_zFRkQCWN-7">
          <mxGeometry x="224" width="163" height="27" as="geometry">
            <mxRectangle width="163" height="27" as="alternateBounds" />
          </mxGeometry>
        </mxCell>
        <mxCell id="6b7R6LfnYin_zFRkQCWN-11" value="Built-in PK" style="shape=partialRectangle;html=1;whiteSpace=wrap;connectable=0;strokeColor=inherit;overflow=hidden;fillColor=none;top=0;left=0;bottom=0;right=0;pointerEvents=1;fontSize=16;" vertex="1" parent="6b7R6LfnYin_zFRkQCWN-7">
          <mxGeometry x="387" width="1109" height="27" as="geometry">
            <mxRectangle width="1109" height="27" as="alternateBounds" />
          </mxGeometry>
        </mxCell>
        <mxCell id="6b7R6LfnYin_zFRkQCWN-12" value="" style="shape=tableRow;horizontal=0;startSize=0;swimlaneHead=0;swimlaneBody=0;strokeColor=inherit;top=0;left=0;bottom=0;right=0;collapsible=0;dropTarget=0;fillColor=none;points=[[0,0.5],[1,0.5]];portConstraint=eastwest;fontSize=16;" vertex="1" parent="6b7R6LfnYin_zFRkQCWN-1">
          <mxGeometry y="86" width="1496" height="28" as="geometry" />
        </mxCell>
        <mxCell id="6b7R6LfnYin_zFRkQCWN-13" value="FK" style="shape=partialRectangle;html=1;whiteSpace=wrap;connectable=0;strokeColor=inherit;overflow=hidden;fillColor=none;top=0;left=0;bottom=0;right=0;pointerEvents=1;fontSize=16;" vertex="1" parent="6b7R6LfnYin_zFRkQCWN-12">
          <mxGeometry width="87" height="28" as="geometry">
            <mxRectangle width="87" height="28" as="alternateBounds" />
          </mxGeometry>
        </mxCell>
        <mxCell id="6b7R6LfnYin_zFRkQCWN-14" value="message_author" style="shape=partialRectangle;html=1;whiteSpace=wrap;connectable=0;strokeColor=inherit;overflow=hidden;fillColor=none;top=0;left=0;bottom=0;right=0;pointerEvents=1;fontSize=16;" vertex="1" parent="6b7R6LfnYin_zFRkQCWN-12">
          <mxGeometry x="87" width="137" height="28" as="geometry">
            <mxRectangle width="137" height="28" as="alternateBounds" />
          </mxGeometry>
        </mxCell>
        <mxCell id="6b7R6LfnYin_zFRkQCWN-15" value="User Model" style="shape=partialRectangle;html=1;whiteSpace=wrap;connectable=0;strokeColor=inherit;overflow=hidden;fillColor=none;top=0;left=0;bottom=0;right=0;pointerEvents=1;fontSize=16;" vertex="1" parent="6b7R6LfnYin_zFRkQCWN-12">
          <mxGeometry x="224" width="163" height="28" as="geometry">
            <mxRectangle width="163" height="28" as="alternateBounds" />
          </mxGeometry>
        </mxCell>
        <mxCell id="6b7R6LfnYin_zFRkQCWN-16" value="on_delete = models.SET_NULL, null=True, blank=True, related_name=&#39;messages&#39; | many-to-one relationship to User Model" style="shape=partialRectangle;html=1;whiteSpace=wrap;connectable=0;strokeColor=inherit;overflow=hidden;fillColor=none;top=0;left=0;bottom=0;right=0;pointerEvents=1;fontSize=16;" vertex="1" parent="6b7R6LfnYin_zFRkQCWN-12">
          <mxGeometry x="387" width="1109" height="28" as="geometry">
            <mxRectangle width="1109" height="28" as="alternateBounds" />
          </mxGeometry>
        </mxCell>
        <mxCell id="6b7R6LfnYin_zFRkQCWN-17" style="shape=tableRow;horizontal=0;startSize=0;swimlaneHead=0;swimlaneBody=0;strokeColor=inherit;top=0;left=0;bottom=0;right=0;collapsible=0;dropTarget=0;fillColor=none;points=[[0,0.5],[1,0.5]];portConstraint=eastwest;fontSize=16;" vertex="1" parent="6b7R6LfnYin_zFRkQCWN-1">
          <mxGeometry y="114" width="1496" height="27" as="geometry" />
        </mxCell>
        <mxCell id="6b7R6LfnYin_zFRkQCWN-18" value="" style="shape=partialRectangle;html=1;whiteSpace=wrap;connectable=0;strokeColor=inherit;overflow=hidden;fillColor=none;top=0;left=0;bottom=0;right=0;pointerEvents=1;fontSize=16;" vertex="1" parent="6b7R6LfnYin_zFRkQCWN-17">
          <mxGeometry width="87" height="27" as="geometry">
            <mxRectangle width="87" height="27" as="alternateBounds" />
          </mxGeometry>
        </mxCell>
        <mxCell id="6b7R6LfnYin_zFRkQCWN-19" value="guest_name" style="shape=partialRectangle;html=1;whiteSpace=wrap;connectable=0;strokeColor=inherit;overflow=hidden;fillColor=none;top=0;left=0;bottom=0;right=0;pointerEvents=1;fontSize=16;" vertex="1" parent="6b7R6LfnYin_zFRkQCWN-17">
          <mxGeometry x="87" width="137" height="27" as="geometry">
            <mxRectangle width="137" height="27" as="alternateBounds" />
          </mxGeometry>
        </mxCell>
        <mxCell id="6b7R6LfnYin_zFRkQCWN-20" value="CharField" style="shape=partialRectangle;html=1;whiteSpace=wrap;connectable=0;strokeColor=inherit;overflow=hidden;fillColor=none;top=0;left=0;bottom=0;right=0;pointerEvents=1;fontSize=16;" vertex="1" parent="6b7R6LfnYin_zFRkQCWN-17">
          <mxGeometry x="224" width="163" height="27" as="geometry">
            <mxRectangle width="163" height="27" as="alternateBounds" />
          </mxGeometry>
        </mxCell>
        <mxCell id="6b7R6LfnYin_zFRkQCWN-21" value="max_length=100, blank=True | automatically set to the username from message_author if user is logged in" style="shape=partialRectangle;html=1;whiteSpace=wrap;connectable=0;strokeColor=inherit;overflow=hidden;fillColor=none;top=0;left=0;bottom=0;right=0;pointerEvents=1;fontSize=16;" vertex="1" parent="6b7R6LfnYin_zFRkQCWN-17">
          <mxGeometry x="387" width="1109" height="27" as="geometry">
            <mxRectangle width="1109" height="27" as="alternateBounds" />
          </mxGeometry>
        </mxCell>
        <mxCell id="6b7R6LfnYin_zFRkQCWN-48" style="shape=tableRow;horizontal=0;startSize=0;swimlaneHead=0;swimlaneBody=0;strokeColor=inherit;top=0;left=0;bottom=0;right=0;collapsible=0;dropTarget=0;fillColor=none;points=[[0,0.5],[1,0.5]];portConstraint=eastwest;fontSize=16;" vertex="1" parent="6b7R6LfnYin_zFRkQCWN-1">
          <mxGeometry y="141" width="1496" height="27" as="geometry" />
        </mxCell>
        <mxCell id="6b7R6LfnYin_zFRkQCWN-49" style="shape=partialRectangle;html=1;whiteSpace=wrap;connectable=0;strokeColor=inherit;overflow=hidden;fillColor=none;top=0;left=0;bottom=0;right=0;pointerEvents=1;fontSize=16;" vertex="1" parent="6b7R6LfnYin_zFRkQCWN-48">
          <mxGeometry width="87" height="27" as="geometry">
            <mxRectangle width="87" height="27" as="alternateBounds" />
          </mxGeometry>
        </mxCell>
        <mxCell id="6b7R6LfnYin_zFRkQCWN-50" value="guest_email" style="shape=partialRectangle;html=1;whiteSpace=wrap;connectable=0;strokeColor=inherit;overflow=hidden;fillColor=none;top=0;left=0;bottom=0;right=0;pointerEvents=1;fontSize=16;" vertex="1" parent="6b7R6LfnYin_zFRkQCWN-48">
          <mxGeometry x="87" width="137" height="27" as="geometry">
            <mxRectangle width="137" height="27" as="alternateBounds" />
          </mxGeometry>
        </mxCell>
        <mxCell id="6b7R6LfnYin_zFRkQCWN-51" value="EmailField" style="shape=partialRectangle;html=1;whiteSpace=wrap;connectable=0;strokeColor=inherit;overflow=hidden;fillColor=none;top=0;left=0;bottom=0;right=0;pointerEvents=1;fontSize=16;" vertex="1" parent="6b7R6LfnYin_zFRkQCWN-48">
          <mxGeometry x="224" width="163" height="27" as="geometry">
            <mxRectangle width="163" height="27" as="alternateBounds" />
          </mxGeometry>
        </mxCell>
        <mxCell id="6b7R6LfnYin_zFRkQCWN-52" value="null=True | auto-populated from user.email if logged in" style="shape=partialRectangle;html=1;whiteSpace=wrap;connectable=0;strokeColor=inherit;overflow=hidden;fillColor=none;top=0;left=0;bottom=0;right=0;pointerEvents=1;fontSize=16;" vertex="1" parent="6b7R6LfnYin_zFRkQCWN-48">
          <mxGeometry x="387" width="1109" height="27" as="geometry">
            <mxRectangle width="1109" height="27" as="alternateBounds" />
          </mxGeometry>
        </mxCell>
        <mxCell id="6b7R6LfnYin_zFRkQCWN-22" style="shape=tableRow;horizontal=0;startSize=0;swimlaneHead=0;swimlaneBody=0;strokeColor=inherit;top=0;left=0;bottom=0;right=0;collapsible=0;dropTarget=0;fillColor=none;points=[[0,0.5],[1,0.5]];portConstraint=eastwest;fontSize=16;" vertex="1" parent="6b7R6LfnYin_zFRkQCWN-1">
          <mxGeometry y="168" width="1496" height="29" as="geometry" />
        </mxCell>
        <mxCell id="6b7R6LfnYin_zFRkQCWN-23" style="shape=partialRectangle;html=1;whiteSpace=wrap;connectable=0;strokeColor=inherit;overflow=hidden;fillColor=none;top=0;left=0;bottom=0;right=0;pointerEvents=1;fontSize=16;" vertex="1" parent="6b7R6LfnYin_zFRkQCWN-22">
          <mxGeometry width="87" height="29" as="geometry">
            <mxRectangle width="87" height="29" as="alternateBounds" />
          </mxGeometry>
        </mxCell>
        <mxCell id="6b7R6LfnYin_zFRkQCWN-24" value="message_reason" style="shape=partialRectangle;html=1;whiteSpace=wrap;connectable=0;strokeColor=inherit;overflow=hidden;fillColor=none;top=0;left=0;bottom=0;right=0;pointerEvents=1;fontSize=16;" vertex="1" parent="6b7R6LfnYin_zFRkQCWN-22">
          <mxGeometry x="87" width="137" height="29" as="geometry">
            <mxRectangle width="137" height="29" as="alternateBounds" />
          </mxGeometry>
        </mxCell>
        <mxCell id="6b7R6LfnYin_zFRkQCWN-25" value="CharField" style="shape=partialRectangle;html=1;whiteSpace=wrap;connectable=0;strokeColor=inherit;overflow=hidden;fillColor=none;top=0;left=0;bottom=0;right=0;pointerEvents=1;fontSize=16;" vertex="1" parent="6b7R6LfnYin_zFRkQCWN-22">
          <mxGeometry x="224" width="163" height="29" as="geometry">
            <mxRectangle width="163" height="29" as="alternateBounds" />
          </mxGeometry>
        </mxCell>
        <mxCell id="6b7R6LfnYin_zFRkQCWN-26" value="choices=(Account Issues, Business Inquiry, Event Organisation Issues, Booking/Ticket Issues, Not Specified/Other) default=Other" style="shape=partialRectangle;html=1;whiteSpace=wrap;connectable=0;strokeColor=inherit;overflow=hidden;fillColor=none;top=0;left=0;bottom=0;right=0;pointerEvents=1;fontSize=16;" vertex="1" parent="6b7R6LfnYin_zFRkQCWN-22">
          <mxGeometry x="387" width="1109" height="29" as="geometry">
            <mxRectangle width="1109" height="29" as="alternateBounds" />
          </mxGeometry>
        </mxCell>
        <mxCell id="6b7R6LfnYin_zFRkQCWN-27" style="shape=tableRow;horizontal=0;startSize=0;swimlaneHead=0;swimlaneBody=0;strokeColor=inherit;top=0;left=0;bottom=0;right=0;collapsible=0;dropTarget=0;fillColor=none;points=[[0,0.5],[1,0.5]];portConstraint=eastwest;fontSize=16;" vertex="1" parent="6b7R6LfnYin_zFRkQCWN-1">
          <mxGeometry y="197" width="1496" height="24" as="geometry" />
        </mxCell>
        <mxCell id="6b7R6LfnYin_zFRkQCWN-28" style="shape=partialRectangle;html=1;whiteSpace=wrap;connectable=0;strokeColor=inherit;overflow=hidden;fillColor=none;top=0;left=0;bottom=0;right=0;pointerEvents=1;fontSize=16;" vertex="1" parent="6b7R6LfnYin_zFRkQCWN-27">
          <mxGeometry width="87" height="24" as="geometry">
            <mxRectangle width="87" height="24" as="alternateBounds" />
          </mxGeometry>
        </mxCell>
        <mxCell id="6b7R6LfnYin_zFRkQCWN-29" value="content" style="shape=partialRectangle;html=1;whiteSpace=wrap;connectable=0;strokeColor=inherit;overflow=hidden;fillColor=none;top=0;left=0;bottom=0;right=0;pointerEvents=1;fontSize=16;" vertex="1" parent="6b7R6LfnYin_zFRkQCWN-27">
          <mxGeometry x="87" width="137" height="24" as="geometry">
            <mxRectangle width="137" height="24" as="alternateBounds" />
          </mxGeometry>
        </mxCell>
        <mxCell id="6b7R6LfnYin_zFRkQCWN-30" value="TextField" style="shape=partialRectangle;html=1;whiteSpace=wrap;connectable=0;strokeColor=inherit;overflow=hidden;fillColor=none;top=0;left=0;bottom=0;right=0;pointerEvents=1;fontSize=16;" vertex="1" parent="6b7R6LfnYin_zFRkQCWN-27">
          <mxGeometry x="224" width="163" height="24" as="geometry">
            <mxRectangle width="163" height="24" as="alternateBounds" />
          </mxGeometry>
        </mxCell>
        <mxCell id="6b7R6LfnYin_zFRkQCWN-31" value="max_length=2000" style="shape=partialRectangle;html=1;whiteSpace=wrap;connectable=0;strokeColor=inherit;overflow=hidden;fillColor=none;top=0;left=0;bottom=0;right=0;pointerEvents=1;fontSize=16;" vertex="1" parent="6b7R6LfnYin_zFRkQCWN-27">
          <mxGeometry x="387" width="1109" height="24" as="geometry">
            <mxRectangle width="1109" height="24" as="alternateBounds" />
          </mxGeometry>
        </mxCell>
        <mxCell id="6b7R6LfnYin_zFRkQCWN-32" style="shape=tableRow;horizontal=0;startSize=0;swimlaneHead=0;swimlaneBody=0;strokeColor=inherit;top=0;left=0;bottom=0;right=0;collapsible=0;dropTarget=0;fillColor=none;points=[[0,0.5],[1,0.5]];portConstraint=eastwest;fontSize=16;" vertex="1" parent="6b7R6LfnYin_zFRkQCWN-1">
          <mxGeometry y="221" width="1496" height="44" as="geometry" />
        </mxCell>
        <mxCell id="6b7R6LfnYin_zFRkQCWN-33" value="" style="shape=partialRectangle;html=1;whiteSpace=wrap;connectable=0;strokeColor=inherit;overflow=hidden;fillColor=none;top=0;left=0;bottom=0;right=0;pointerEvents=1;fontSize=16;" vertex="1" parent="6b7R6LfnYin_zFRkQCWN-32">
          <mxGeometry width="87" height="44" as="geometry">
            <mxRectangle width="87" height="44" as="alternateBounds" />
          </mxGeometry>
        </mxCell>
        <mxCell id="6b7R6LfnYin_zFRkQCWN-34" value="created_on" style="shape=partialRectangle;html=1;whiteSpace=wrap;connectable=0;strokeColor=inherit;overflow=hidden;fillColor=none;top=0;left=0;bottom=0;right=0;pointerEvents=1;fontSize=16;" vertex="1" parent="6b7R6LfnYin_zFRkQCWN-32">
          <mxGeometry x="87" width="137" height="44" as="geometry">
            <mxRectangle width="137" height="44" as="alternateBounds" />
          </mxGeometry>
        </mxCell>
        <mxCell id="6b7R6LfnYin_zFRkQCWN-35" value="DateTimeField" style="shape=partialRectangle;html=1;whiteSpace=wrap;connectable=0;strokeColor=inherit;overflow=hidden;fillColor=none;top=0;left=0;bottom=0;right=0;pointerEvents=1;fontSize=16;" vertex="1" parent="6b7R6LfnYin_zFRkQCWN-32">
          <mxGeometry x="224" width="163" height="44" as="geometry">
            <mxRectangle width="163" height="44" as="alternateBounds" />
          </mxGeometry>
        </mxCell>
        <mxCell id="6b7R6LfnYin_zFRkQCWN-36" value="auto_now_add=True" style="shape=partialRectangle;html=1;whiteSpace=wrap;connectable=0;strokeColor=inherit;overflow=hidden;fillColor=none;top=0;left=0;bottom=0;right=0;pointerEvents=1;fontSize=16;" vertex="1" parent="6b7R6LfnYin_zFRkQCWN-32">
          <mxGeometry x="387" width="1109" height="44" as="geometry">
            <mxRectangle width="1109" height="44" as="alternateBounds" />
          </mxGeometry>
        </mxCell>
        <mxCell id="6b7R6LfnYin_zFRkQCWN-37" value="" style="edgeStyle=entityRelationEdgeStyle;fontSize=12;html=1;endArrow=ERmany;rounded=0;" edge="1" parent="1" source="w2JHaz7uP7hH5NqDD6UE-6" target="6b7R6LfnYin_zFRkQCWN-12">
          <mxGeometry width="100" height="100" relative="1" as="geometry">
            <mxPoint x="2720" y="682.5" as="sourcePoint" />
            <mxPoint x="2720" y="826" as="targetPoint" />
            <Array as="points">
              <mxPoint x="2730" y="500" />
              <mxPoint x="2620" y="710" />
            </Array>
          </mxGeometry>
        </mxCell>
      </root>
    </mxGraphModel>
  </diagram>
</mxfile>
